<svg width="799" height="246" viewBox="0 0 799 246" fill="none" xmlns="http://www.w3.org/2000/svg">
<path d="M72.683 80.1342C72.683 93.1823 69.659 102.773 63.5957 108.89C57.5323 115.007 48.4296 118.074 36.3029 118.074C24.2842 118.074 15.2278 115.007 9.13358 108.859C3.03939 102.71 0 93.1354 0 80.1342V1.28223H26.0585V82.9504C26.0585 87.2528 26.8453 90.3349 28.4345 92.2123C30.0236 94.0898 32.6464 95.0285 36.3029 95.0285C39.9594 95.0285 42.5977 94.0741 44.2485 92.1654C45.8839 90.2567 46.717 87.1902 46.717 82.9504V1.28223H72.6984V80.1342H72.683Z" fill="white"/>
<path d="M85.8203 116.791V1.28223H111.879L137.058 68.2908V1.28223H160.648V116.791H134.666L109.41 49.8607V116.791H85.8203Z" fill="white"/>
<path d="M174.609 116.791V1.28223H206.546C221.589 1.28223 232.821 6.10096 240.272 15.7384C247.709 25.3759 251.427 39.9729 251.427 59.5294C251.427 78.7574 247.709 93.1041 240.272 102.585C232.836 112.066 221.589 116.807 206.546 116.807H174.609V116.791ZM206.376 93.6673C212.841 93.6673 217.485 91.0077 220.324 85.6883C223.162 80.3689 224.582 71.6545 224.582 59.5138C224.582 47.0445 223.162 38.0798 220.324 32.604C217.485 27.1282 212.841 24.3902 206.376 24.3902H200.652V93.6673H206.376Z" fill="white"/>
<path d="M260.516 116.791V1.28223H318.11V24.3902H286.096V46.3874H313.743V69.4172H286.096V93.6674H318.974V116.791H260.516Z" fill="white"/>
<path d="M328.797 116.791V1.28223H367.244C378.414 1.28223 386.931 4.45821 392.778 10.8258C398.626 17.1934 401.557 26.4398 401.557 38.5648C401.557 46.6221 400.091 53.3965 397.144 58.9036C394.198 64.4108 389.924 68.4159 384.308 70.9505L405.599 116.775H377.165L359.7 75.8631H354.855V116.791H328.797ZM364.298 23.7488H354.84V53.4747H364.298C368.108 53.4747 371.009 52.2075 372.999 49.6886C374.989 47.1697 375.977 43.4618 375.977 38.5648C375.977 28.6927 372.089 23.7488 364.298 23.7488Z" fill="white"/>
<path d="M405.062 81.0267L429.455 77.7255C430.087 89.8036 434.592 95.8427 442.955 95.8427C446.457 95.8427 449.141 94.9666 451.054 93.23C452.968 91.4933 453.909 89.0057 453.909 85.7828C453.909 82.6694 453.014 80.1662 451.24 78.2888C449.465 76.4113 446.272 74.5652 441.674 72.7347L432.062 68.9485C423.808 65.6787 417.652 61.2354 413.594 55.6188C409.537 50.0022 407.516 42.8523 407.516 34.1535C407.516 23.5148 410.648 15.1759 416.927 9.10553C423.206 3.03518 431.815 0 442.785 0C453.754 0 462.194 2.89437 468.118 8.69875C474.043 14.5031 477.699 23.4209 479.088 35.4365L454.696 38.7376C454.372 33.0427 453.307 28.8655 451.486 26.2058C449.65 23.5461 446.935 22.2162 443.34 22.2162C440.008 22.2162 437.4 23.1393 435.518 25.0011C433.636 26.8629 432.695 29.413 432.695 32.6985C432.695 35.9215 433.713 38.4716 435.75 40.3491C437.786 42.2265 441.674 44.3542 447.382 46.7167L456.115 50.3464C464.693 53.8978 470.803 58.2316 474.428 63.3476C478.054 68.4792 479.875 75.3944 479.875 84.0931C479.875 94.6693 476.588 102.977 470.031 109.016C463.459 115.055 454.433 118.075 442.955 118.075C430.828 118.075 421.864 115.243 416.063 109.579C410.262 103.916 406.59 94.4033 405.062 81.0267Z" fill="white"/>
<path d="M504.008 116.791V24.3902H481.375V1.28223H552.87V24.3902H530.067V116.791H504.008Z" fill="white"/>
<path d="M601.217 116.791L597.16 96.4991H570.793L566.735 116.791H542.266L570.145 1.28223H599.381L627.183 116.791H601.217ZM575.329 73.9387H592.562L583.984 31.1646L575.329 73.9387Z" fill="white"/>
<path d="M632.578 116.791V1.28223H658.637L683.816 68.2908V1.28223H707.406V116.791H681.424L656.168 49.8607V116.791H632.578Z" fill="white"/>
<path d="M721.352 116.791V1.28223H753.288C768.331 1.28223 779.563 6.10096 787.015 15.7384C794.451 25.3759 798.169 39.9729 798.169 59.5294C798.169 78.7574 794.451 93.1041 787.015 102.585C779.578 112.066 768.331 116.807 753.288 116.807H721.352V116.791ZM753.119 93.6673C759.583 93.6673 764.227 91.0077 767.066 85.6883C769.905 80.3689 771.324 71.6545 771.324 59.5138C771.324 47.0445 769.905 38.0798 767.066 32.604C764.227 27.1282 759.583 24.3902 753.119 24.3902H747.395V93.6673H753.119Z" fill="white"/>
<path d="M0 243.046C1.28126 241.214 2.39825 238.998 3.35098 236.416C4.30371 233.818 4.78008 231.186 4.78008 228.487V145.951C4.78008 143.252 4.30371 140.604 3.35098 138.022C2.39825 135.44 1.28126 133.224 0 131.392V130.576H71.0113L74.198 155.662H72.6047C70.4692 150.814 68.3009 146.85 66.067 143.768C63.833 140.687 60.9255 138.255 57.361 136.489C53.7964 134.707 49.2956 133.807 43.8749 133.807H16.7713V184.795H42.298C47.193 184.795 50.8397 183.629 53.2379 181.314C55.6362 178.999 57.3117 175.834 58.2644 171.853H59.8578V200.986H58.2644C57.3117 196.988 55.6362 193.84 53.2379 191.525C50.8397 189.21 47.193 188.044 42.298 188.044H16.7713V228.504C16.7713 231.203 17.2477 233.851 18.2004 236.433C19.1532 239.015 20.2702 241.23 21.5514 243.063V243.879H0V243.046Z" fill="white"/>
<path d="M82.4375 243.046C83.7188 241.214 84.8357 238.998 85.7885 236.416C86.7412 233.818 87.2176 231.186 87.2176 228.488V145.951C87.2176 143.252 86.7412 140.604 85.7885 138.022C84.8357 135.44 83.7188 133.224 82.4375 131.392V130.576H151.855L155.042 155.662H153.449C151.313 150.815 149.145 146.85 146.911 143.769C144.677 140.687 141.77 138.255 138.205 136.489C134.641 134.707 130.14 133.807 124.719 133.807H99.1924V184.795H123.126C128.021 184.795 131.667 183.629 134.066 181.314C136.464 178.999 138.139 175.834 139.092 171.853H140.685V200.986H139.092C138.139 196.989 136.464 193.84 134.066 191.525C131.667 189.21 128.021 188.044 123.126 188.044H99.1924V240.647H128.711C134.131 240.647 138.632 239.765 142.197 237.982C145.761 236.2 148.669 233.768 150.903 230.703C153.137 227.638 155.321 223.657 157.44 218.81H159.034L155.847 243.896H82.4375V243.046Z" fill="white"/>
<path d="M183.443 242.969C177.595 241.303 173.062 239.438 169.875 237.389V211.503H171.468C173.817 220.782 177.727 228.094 183.197 233.425C188.667 238.772 194.925 241.437 201.956 241.437C209.298 241.437 215.228 239.255 219.745 234.89C224.263 230.509 226.529 224.879 226.529 217.983C226.529 210.854 224.164 205.39 219.433 201.559C214.702 197.728 208.345 194.463 200.362 191.781C193.447 189.516 187.812 187.184 183.443 184.819C179.074 182.453 175.542 179.238 172.832 175.191C170.121 171.143 168.758 165.946 168.758 159.583C168.758 153.653 170.17 148.356 172.979 143.725C175.805 139.094 179.731 135.48 184.79 132.881C189.849 130.282 195.73 129 202.432 129C207.853 129 213.175 129.749 218.398 131.265C223.606 132.781 227.811 134.447 231.014 136.279V159.749H229.42C227.4 151.67 223.918 145.191 218.973 140.327C214.029 135.48 207.885 133.048 200.543 133.048C194.268 133.048 188.864 135.046 184.346 139.044C179.829 143.042 177.562 148.422 177.562 155.218C177.562 159.649 178.778 163.397 181.225 166.462C183.673 169.544 186.761 172.042 190.49 173.991C194.219 175.94 198.9 177.922 204.534 179.971C211.45 182.353 217.084 184.685 221.454 187.017C225.807 189.333 229.486 192.647 232.459 196.962C235.433 201.276 236.927 206.773 236.927 213.469C236.927 219.732 235.383 225.279 232.295 230.143C229.207 234.99 225.035 238.772 219.762 241.47C214.489 244.168 208.674 245.518 202.284 245.518C195.566 245.484 189.291 244.635 183.443 242.969Z" fill="white"/>
<path d="M277.159 243.046C278.44 241.214 279.557 238.998 280.509 236.416C281.462 233.818 281.939 231.186 281.939 228.487V133.807H269.964C264.527 133.807 260.042 134.69 256.478 136.489C252.913 138.271 250.022 140.703 247.788 143.768C245.554 146.85 243.369 150.814 241.234 155.662H239.641L242.827 130.576H332.992L336.179 155.662H334.585C332.45 150.814 330.281 146.85 328.047 143.768C325.813 140.687 322.906 138.255 319.341 136.489C315.777 134.707 311.276 133.807 305.855 133.807H293.881V228.487C293.881 231.186 294.357 233.834 295.326 236.416C296.279 238.998 297.396 241.214 298.677 243.046V243.862H277.126V243.046H277.159Z" fill="white"/>
<path d="M343.242 243.046C344.523 241.214 345.64 238.998 346.593 236.416C347.546 233.818 348.022 231.186 348.022 228.487V145.951C348.022 143.252 347.546 140.604 346.593 138.022C345.64 135.44 344.523 133.224 343.242 131.392V130.576H364.153V131.392C362.872 133.224 361.755 135.44 360.802 138.022C359.849 140.62 359.373 143.252 359.373 145.951V228.487C359.373 231.186 359.849 233.834 360.802 236.416C361.755 238.998 362.872 241.214 364.153 243.046V243.862H343.242V243.046Z" fill="white"/>
<path d="M382.139 145.62C380.972 142.389 379.74 139.707 378.476 137.608C377.194 135.493 375.552 133.427 373.531 131.378V130.562H397.464V131.378C395.23 133.644 394.114 136.609 394.114 140.273C394.114 142.439 394.541 144.588 395.395 146.753L425.406 226.542L455.565 146.753C456.632 144.171 457.158 141.739 457.158 139.474C457.158 136.026 455.663 133.327 452.69 131.395V130.579H470.89V131.395C468.229 132.911 466.078 134.793 464.418 137.059C462.759 139.324 461.248 142.239 459.868 145.804L422.203 244.681H419.804L382.139 145.62Z" fill="white"/>
<path d="M451.789 243.059C454.45 241.543 456.635 239.611 458.327 237.229C460.035 234.863 461.563 231.948 462.959 228.484L501.265 129.756H503.664L542.134 228.8C543.415 232.148 544.664 234.847 545.879 236.896C547.095 238.944 548.721 240.993 550.742 243.042V243.858H526.808V243.042C527.761 242.076 528.599 240.777 529.289 239.161C529.979 237.545 530.324 235.83 530.324 233.981C530.324 232.148 529.946 230.316 529.207 228.467L519.794 204.197H476.379L466.967 228.467C466.014 230.849 465.538 232.998 465.538 234.947C465.538 238.195 467.082 240.893 470.17 243.042V243.858H451.822V243.059H451.789ZM498.079 147.729L477.496 200.966H518.513L498.079 147.729Z" fill="white"/>
<path d="M560.016 243.046C561.297 241.214 562.414 238.998 563.367 236.416C564.319 233.818 564.796 231.186 564.796 228.488V145.951C564.796 143.252 564.319 140.604 563.367 138.022C562.414 135.44 561.297 133.224 560.016 131.392V130.576H581.567V131.392C580.286 133.224 579.169 135.44 578.216 138.022C577.263 140.62 576.787 143.252 576.787 145.951V240.614H604.712C610.133 240.614 614.633 239.731 618.198 237.949C621.762 236.167 624.653 233.735 626.887 230.67C629.121 227.605 631.306 223.624 633.442 218.776H635.035L631.848 243.862H560.032V243.046H560.016Z" fill="white"/>
</svg>
