<svg width="501" height="170" viewBox="0 0 501 170" fill="none" xmlns="http://www.w3.org/2000/svg">
<g style="mix-blend-mode:difference">
<path d="M50.6159 61.022V13.7H34.7759V62.705C34.7759 67.853 32.8949 69.932 28.4399 69.932C23.9849 69.932 22.2029 67.853 22.2029 62.705V13.7H6.36291V61.022C6.36291 76.862 14.0849 83.792 28.4399 83.792C42.9929 83.792 50.6159 76.862 50.6159 61.022ZM59.6582 83H74.0132V42.806L89.3582 83H105.198V13.7H90.8432V53.894L75.4982 13.7H59.6582V83ZM115.06 83H134.464C152.779 83 161.788 71.714 161.788 48.647C161.788 25.184 152.779 13.7 134.464 13.7H115.06V83ZM134.365 69.14H130.9V27.56H134.365C142.186 27.56 145.453 33.698 145.453 48.647C145.453 63.2 142.186 69.14 134.365 69.14ZM168.334 83H203.875V69.14H183.877V54.587H200.707V40.727H183.877V27.56H203.38V13.7H168.334V83ZM210.297 83H226.137V58.448H229.107L239.7 83H257.025L244.056 55.478C250.887 52.409 254.55 45.776 254.55 36.074C254.55 21.521 247.224 13.7 233.661 13.7H210.297V83ZM231.879 27.164C236.532 27.164 239.007 30.233 239.007 36.074C239.007 41.915 236.532 44.984 231.879 44.984H226.137V27.164H231.879ZM257.088 61.517C258.969 77.555 265.404 83.792 280.155 83.792C294.114 83.792 302.628 76.07 302.628 63.398C302.628 52.904 298.569 47.36 288.174 43.103L282.828 40.925C275.997 38.153 273.918 36.47 273.918 32.51C273.918 28.55 276.294 26.273 280.353 26.273C284.709 26.273 286.887 29.342 287.283 36.173L302.133 34.193C300.45 19.739 293.421 12.908 280.056 12.908C266.691 12.908 258.573 20.63 258.573 33.401C258.573 43.994 263.622 50.429 273.522 54.29L279.363 56.567C284.907 58.745 286.788 60.626 286.788 64.388C286.788 68.249 284.412 70.427 280.155 70.427C275.007 70.427 272.334 66.863 271.938 59.537L257.088 61.517ZM316.932 83H332.772V27.56H346.632V13.7H303.171V27.56H316.932V83ZM375.36 83H391.2L374.271 13.7H356.451L339.522 83H354.372L356.847 70.823H372.885L375.36 83ZM359.619 57.26L364.866 31.619L370.113 57.26H359.619ZM394.97 83H409.325V42.806L424.67 83H440.51V13.7H426.155V53.894L410.81 13.7H394.97V83ZM450.372 83H469.776C488.091 83 497.1 71.714 497.1 48.647C497.1 25.184 488.091 13.7 469.776 13.7H450.372V83ZM469.677 69.14H466.212V27.56H469.677C477.498 27.56 480.765 33.698 480.765 48.647C480.765 63.2 477.498 69.14 469.677 69.14Z" fill="white"/>
</g>
<g style="mix-blend-mode:difference">
<path d="M93.3047 161.99C103.898 161.99 116.273 156.248 116.273 142.388C116.273 131.597 107.759 125.756 100.433 121.202C93.4037 116.846 86.5727 112.292 86.5727 105.263C86.5727 97.046 94.4927 93.185 101.72 93.185C112.115 93.185 116.57 100.412 117.065 110.51H118.055L120.827 96.353C117.956 93.878 110.927 90.71 102.413 90.71C91.5227 90.71 80.9297 96.452 80.9297 108.728C80.9297 118.133 88.4537 123.083 96.7697 128.132C102.809 131.795 109.739 136.943 109.739 145.358C109.739 154.961 101.324 159.515 93.8987 159.515C83.8007 159.515 77.6627 152.288 77.1677 140.012H76.1777L73.1087 155.654C77.6627 159.713 86.1767 161.99 93.3047 161.99ZM151.53 161.99C163.905 161.99 173.013 154.565 177.468 142.883H176.478C171.231 151.496 164.103 156.842 154.5 156.842C141.927 156.842 133.017 146.348 133.017 131.498C133.017 107.342 145.689 93.383 160.242 93.383C170.439 93.383 177.369 100.412 177.765 111.005H178.755L181.626 96.452C178.854 94.373 171.132 90.71 161.529 90.71C143.115 90.71 124.998 106.253 124.998 132.884C124.998 150.209 135.789 161.99 151.53 161.99ZM194.176 161L194.275 160.505C193.285 158.525 192.493 155.06 193.186 151.595L198.136 126.35H233.38L228.529 151.595C227.836 155.06 225.856 158.327 223.975 160.505L223.876 161H236.746L236.845 160.505C235.855 158.525 235.063 155.06 235.756 151.595L245.557 101.105C246.25 97.64 248.329 94.175 250.111 92.195L250.21 91.7H237.34L237.241 92.195C238.231 94.175 239.023 97.64 238.33 101.105L233.776 124.37H198.532L202.987 101.105C203.68 97.64 205.759 94.175 207.541 92.195L207.64 91.7H194.77L194.671 92.195C195.661 94.175 196.453 97.64 195.76 101.105L185.959 151.595C185.266 155.06 183.187 158.525 181.405 160.505L181.306 161H194.176ZM277.953 161.99C296.367 161.99 313.098 144.071 313.098 117.143C313.098 101.303 304.188 90.71 287.952 90.71C269.538 90.71 252.807 108.629 252.807 135.557C252.807 151.397 261.717 161.99 277.953 161.99ZM278.646 160.01C267.657 160.01 261.222 151.199 261.222 135.854C261.222 113.084 273.399 92.69 287.259 92.69C298.248 92.69 304.683 101.501 304.683 116.846C304.683 139.616 292.506 160.01 278.646 160.01ZM342.925 161.99C361.339 161.99 378.07 144.071 378.07 117.143C378.07 101.303 369.16 90.71 352.924 90.71C334.51 90.71 317.779 108.629 317.779 135.557C317.779 151.397 326.689 161.99 342.925 161.99ZM343.618 160.01C332.629 160.01 326.194 151.199 326.194 135.854C326.194 113.084 338.371 92.69 352.231 92.69C363.22 92.69 369.655 101.501 369.655 116.846C369.655 139.616 357.478 160.01 343.618 160.01ZM423.144 161L428.49 145.655H427.599C421.758 154.565 416.61 159.02 405.522 159.02H391.068L402.255 101.105C402.948 97.64 405.027 94.175 406.809 92.195L406.908 91.7H394.038L393.939 92.195C394.929 94.175 395.721 97.64 395.028 101.105L385.227 151.595C384.534 155.06 382.455 158.525 380.673 160.505L380.574 161H423.144Z" fill="white"/>
</g>
</svg>
