<svg width="33" height="12" viewBox="0 0 33 12" fill="none" xmlns="http://www.w3.org/2000/svg">
<path d="M1.03469 4.98438C1.00344 7.67969 2.78469 9.17969 4.80812 9.15625C6.47219 9.15625 7.855 8.21875 8.13625 6.63281H6.62062C6.5425 7.03125 6.34719 7.34375 6.02687 7.5625C5.70656 7.77344 5.33937 7.88281 4.92531 7.88281H4.7925C3.78469 7.89844 2.62844 6.96875 2.55812 5.24219H8.15969V4.35938C8.18312 2.30469 6.80812 0.8125 4.76125 0.84375C2.83937 0.820312 0.995625 2.33594 1.03469 4.98438ZM2.65187 4.03906C2.78469 3.375 3.0425 2.89062 3.42531 2.58594C3.80812 2.27344 4.23 2.11719 4.69875 2.11719H4.83156C5.32375 2.11719 5.74562 2.27344 6.08156 2.59375C6.4175 2.90625 6.605 3.39062 6.63625 4.03906H2.65187ZM16.0428 9C15.9881 8.625 15.9647 8.03906 15.9647 7.24219V3.88281C15.9803 2.23438 14.785 0.820312 12.7147 0.84375C10.9412 0.828125 9.55844 1.875 9.48812 3.32031H11.0037C11.0975 2.54688 11.7772 2.11719 12.6522 2.11719H12.785C13.8162 2.11719 14.4491 2.76562 14.4491 3.88281V4.14062L12.2381 4.3125C11.4334 4.38281 10.7459 4.60156 10.1756 4.98438C9.60531 5.36719 9.32406 5.96875 9.32406 6.78906C9.30062 8.125 10.4725 9.17969 11.9647 9.15625C13.1991 9.15625 14.1991 8.46094 14.5272 7.71875C14.5272 8.30469 14.5506 8.73438 14.6053 9H16.0428ZM14.4491 6.11719C14.4803 7.03125 13.2303 7.90625 12.2694 7.88281H12.1444C11.3944 7.88281 10.8475 7.38281 10.8475 6.72656C10.8475 6.00781 11.4881 5.55469 12.4491 5.46094L14.4491 5.3125V6.11719ZM17.3634 6.52344C17.3634 8.0625 18.5431 9.15625 20.6447 9.15625C22.4806 9.17969 23.8166 8.17969 23.7931 6.75781C23.7931 6.08594 23.59 5.5625 23.1916 5.1875C22.7931 4.8125 22.2541 4.55469 21.5822 4.42188L20.3244 4.17188C19.5197 4.00781 19.1994 3.70312 19.1994 3.14062C19.1994 2.57812 19.7775 2.11719 20.6603 2.11719H20.7853C21.7619 2.11719 22.2697 2.6875 22.3556 3.47656H23.8713C23.8713 1.92969 22.7697 0.84375 20.7072 0.84375C19.09 0.835938 17.6603 1.75781 17.6838 3.30469C17.6838 3.94531 17.8947 4.45312 18.3166 4.82812C18.7463 5.19531 19.3088 5.45312 20.0197 5.59375L21.1838 5.8125C21.965 5.96875 22.2775 6.30469 22.2775 6.84375C22.2775 7.15625 22.1369 7.40625 21.8478 7.60156C21.5666 7.78906 21.215 7.88281 20.7853 7.88281H20.6603C19.6603 7.88281 18.965 7.4375 18.8791 6.52344H17.3634ZM32.5044 1H30.9341L28.5356 6.89844L26.0434 1H24.4263L27.7856 8.83594V9.96094C27.7856 10.4375 27.6216 10.6016 27.145 10.6016H24.9028V11.9609H27.5434C28.6606 11.9609 29.2231 11.3984 29.2231 10.2812V8.84375L32.5044 1Z" fill="#A2F5B4"/>
</svg>
