<svg width="1444" height="119" viewBox="0 0 1444 119" fill="none" xmlns="http://www.w3.org/2000/svg">
<path d="M73.1751 80.1342C73.1751 93.1824 70.1512 102.773 64.0879 108.89C58.0245 115.007 48.9218 118.074 36.7951 118.074C24.7764 118.074 15.72 115.007 9.62577 108.859C3.53157 102.71 0.492188 93.1354 0.492188 80.1342V1.28224H26.5507V82.9504C26.5507 87.2528 27.3375 90.3349 28.9266 92.2124C30.5158 94.0898 33.1386 95.0285 36.7951 95.0285C40.4516 95.0285 43.0899 94.0741 44.7407 92.1654C46.3761 90.2567 47.2092 87.1902 47.2092 82.9504V1.28224H73.1906V80.1342H73.1751Z" fill="#2C2C32"/>
<path d="M86.3125 116.791V1.28223H112.371L137.55 68.2908V1.28223H161.14V116.791H135.159L109.902 49.8607V116.791H86.3125Z" fill="#2C2C32"/>
<path d="M175.098 116.791V1.28223H207.034C222.077 1.28223 233.309 6.10096 240.761 15.7384C248.197 25.3759 251.915 39.9729 251.915 59.5294C251.915 78.7574 248.197 93.1041 240.761 102.585C233.324 112.066 222.077 116.807 207.034 116.807H175.098V116.791ZM206.865 93.6673C213.329 93.6673 217.973 91.0077 220.812 85.6883C223.651 80.3689 225.07 71.6545 225.07 59.5138C225.07 47.0445 223.651 38.0798 220.812 32.604C217.973 27.1282 213.329 24.3902 206.865 24.3902H201.141V93.6673H206.865Z" fill="#2C2C32"/>
<path d="M261.012 116.791V1.28223H318.606V24.3902H286.592V46.3874H314.24V69.4172H286.592V93.6674H319.47V116.791H261.012Z" fill="#2C2C32"/>
<path d="M329.285 116.791V1.28223H367.733C378.903 1.28223 387.419 4.45821 393.267 10.8258C399.114 17.1934 402.045 26.4398 402.045 38.5648C402.045 46.6221 400.58 53.3965 397.633 58.9036C394.686 64.4108 390.412 68.4159 384.796 70.9505L406.087 116.775H377.653L360.188 75.8631H355.344V116.791H329.285ZM364.786 23.7488H355.328V53.4747H364.786C368.597 53.4747 371.497 52.2075 373.487 49.6886C375.478 47.1697 376.465 43.4618 376.465 38.5648C376.465 28.6927 372.577 23.7488 364.786 23.7488Z" fill="#2C2C32"/>
<path d="M405.551 81.0267L429.943 77.7255C430.576 89.8036 435.081 95.8427 443.443 95.8427C446.945 95.8427 449.63 94.9666 451.543 93.23C453.456 91.4933 454.397 89.0057 454.397 85.7828C454.397 82.6694 453.502 80.1662 451.728 78.2888C449.954 76.4113 446.76 74.5652 442.162 72.7347L432.55 68.9485C424.296 65.6787 418.14 61.2354 414.083 55.6188C410.025 50.0022 408.004 42.8523 408.004 34.1535C408.004 23.5148 411.136 15.1759 417.415 9.10553C423.695 3.03518 432.304 0 443.273 0C454.243 0 462.682 2.89437 468.606 8.69875C474.531 14.5031 478.187 23.4209 479.576 35.4365L455.184 38.7376C454.86 33.0427 453.795 28.8655 451.975 26.2058C450.139 23.5461 447.423 22.2162 443.829 22.2162C440.496 22.2162 437.889 23.1393 436.006 25.0011C434.124 26.8629 433.183 29.413 433.183 32.6985C433.183 35.9215 434.201 38.4716 436.238 40.3491C438.274 42.2265 442.162 44.3542 447.871 46.7167L456.603 50.3464C465.181 53.8978 471.291 58.2316 474.917 63.3476C478.542 68.4792 480.363 75.3944 480.363 84.0931C480.363 94.6693 477.077 102.977 470.52 109.016C463.947 115.055 454.922 118.075 443.443 118.075C431.316 118.075 422.352 115.243 416.551 109.579C410.75 103.916 407.078 94.4034 405.551 81.0267Z" fill="#2C2C32"/>
<path d="M504.501 116.791V24.3902H481.867V1.28223H553.362V24.3902H530.559V116.791H504.501Z" fill="#2C2C32"/>
<path d="M601.71 116.791L597.652 96.4991H571.285L567.227 116.791H542.758L570.637 1.28223H599.874L627.675 116.791H601.71ZM575.821 73.9387H593.054L584.476 31.1646L575.821 73.9387Z" fill="#2C2C32"/>
<path d="M633.074 116.791V1.28223H659.133L684.312 68.2908V1.28223H707.902V116.791H681.92L656.664 49.8607V116.791H633.074Z" fill="#2C2C32"/>
<path d="M721.844 116.791V1.28223H753.78C768.823 1.28223 780.055 6.10096 787.507 15.7384C794.943 25.3759 798.661 39.9729 798.661 59.5294C798.661 78.7574 794.943 93.1041 787.507 102.585C780.07 112.066 768.823 116.807 753.78 116.807H721.844V116.791ZM753.611 93.6673C760.075 93.6673 764.719 91.0077 767.558 85.6883C770.397 80.3689 771.816 71.6545 771.816 59.5138C771.816 47.0445 770.397 38.0798 767.558 32.604C764.719 27.1282 760.075 24.3902 753.611 24.3902H747.887V93.6673H753.611Z" fill="#2C2C32"/>
<path d="M808.965 114.046C810.246 112.214 811.363 109.998 812.316 107.416C813.269 104.818 813.745 102.186 813.745 99.4875V16.9505C813.745 14.252 813.269 11.6035 812.316 9.02164C811.363 6.43976 810.246 4.22433 808.965 2.39203V1.57582H879.976L883.163 26.6617H881.569C879.434 21.8144 877.266 17.85 875.032 14.7684C872.798 11.6868 869.89 9.25485 866.326 7.48917C862.761 5.70684 858.26 4.80734 852.84 4.80734H825.736V55.7954H851.263C856.158 55.7954 859.805 54.6293 862.203 52.314C864.601 49.9986 866.277 46.8337 867.229 42.8526H868.823V71.9863H867.229C866.277 67.9885 864.601 64.8403 862.203 62.5249C859.805 60.2096 856.158 59.0435 851.263 59.0435H825.736V99.5041C825.736 102.203 826.213 104.851 827.165 107.433C828.118 110.015 829.235 112.23 830.516 114.063V114.879H808.965V114.046Z" fill="#2C2C32"/>
<path d="M891.398 114.046C892.68 112.214 893.797 109.998 894.749 107.416C895.702 104.818 896.179 102.186 896.179 99.4876V16.9506C896.179 14.2521 895.702 11.6036 894.749 9.02175C893.797 6.43986 892.68 4.22444 891.398 2.39213V1.57593H960.816L964.003 26.6618H962.41C960.274 21.8146 958.106 17.8501 955.872 14.7685C953.638 11.6869 950.731 9.25495 947.166 7.48928C943.602 5.70694 939.101 4.80745 933.68 4.80745H908.153V55.7955H932.087C936.982 55.7955 940.628 54.6294 943.027 52.3141C945.425 49.9987 947.1 46.8338 948.053 42.8527H949.646V71.9864H948.053C947.1 67.9886 945.425 64.8404 943.027 62.525C940.628 60.2097 936.982 59.0436 932.087 59.0436H908.153V111.647H937.672C943.092 111.647 947.593 110.765 951.158 108.982C954.722 107.2 957.63 104.768 959.864 101.703C962.098 98.638 964.282 94.6569 966.401 89.8097H967.995L964.808 114.896H891.398V114.046Z" fill="#2C2C32"/>
<path d="M992.408 113.969C986.56 112.303 982.026 110.438 978.84 108.389V82.5035H980.433C982.782 91.7816 986.691 99.0942 992.161 104.425C997.631 109.772 1003.89 112.437 1010.92 112.437C1018.26 112.437 1024.19 110.255 1028.71 105.89C1033.23 101.51 1035.49 95.8793 1035.49 88.9832C1035.49 81.8539 1033.13 76.3903 1028.4 72.5591C1023.67 68.7279 1017.31 65.4631 1009.33 62.7813C1002.41 60.5159 996.777 58.1839 992.408 55.8185C988.038 53.4532 984.507 50.2383 981.796 46.1906C979.086 42.1429 977.723 36.9458 977.723 30.5827C977.723 24.6527 979.135 19.3557 981.944 14.725C984.77 10.0942 988.695 6.47959 993.755 3.88105C998.814 1.28251 1004.69 -9.15527e-05 1011.4 -9.15527e-05C1016.82 -9.15527e-05 1022.14 0.749488 1027.36 2.2653C1032.57 3.78112 1036.78 5.44684 1039.98 7.27914V30.7493H1038.39C1036.36 22.6705 1032.88 16.1908 1027.94 11.3269C1022.99 6.47959 1016.85 4.04763 1009.51 4.04763C1003.23 4.04763 997.829 6.04651 993.311 10.0443C988.794 14.042 986.527 19.4223 986.527 26.2185C986.527 30.6493 987.743 34.3972 990.19 37.4622C992.638 40.5438 995.726 43.0424 999.455 44.9913C1003.18 46.9402 1007.87 48.9224 1013.5 50.9713C1020.41 53.3533 1026.05 55.6853 1030.42 58.0173C1034.77 60.3327 1038.45 63.6475 1041.42 67.9617C1044.4 72.2759 1045.89 77.7729 1045.89 84.4691C1045.89 90.7323 1044.35 96.2791 1041.26 101.143C1038.17 105.99 1034 109.772 1028.73 112.47C1023.45 115.169 1017.64 116.518 1011.25 116.518C1004.53 116.484 998.256 115.635 992.408 113.969Z" fill="#2C2C32"/>
<path d="M1086.12 114.046C1087.4 112.214 1088.52 109.998 1089.47 107.416C1090.42 104.818 1090.9 102.186 1090.9 99.4874V4.80721H1078.92C1073.49 4.80721 1069 5.69004 1065.44 7.48903C1061.87 9.27137 1058.98 11.7033 1056.75 14.7683C1054.52 17.8499 1052.33 21.8143 1050.19 26.6616H1048.6L1051.79 1.57568H1141.95L1145.14 26.6616H1143.55C1141.41 21.8143 1139.24 17.8499 1137.01 14.7683C1134.77 11.6867 1131.87 9.25471 1128.3 7.48903C1124.74 5.7067 1120.24 4.80721 1114.82 4.80721H1102.84V99.4874C1102.84 102.186 1103.32 104.834 1104.29 107.416C1105.24 109.998 1106.36 112.214 1107.64 114.046V114.862H1086.09V114.046H1086.12Z" fill="#2C2C32"/>
<path d="M1152.21 114.046C1153.49 112.214 1154.61 109.998 1155.56 107.416C1156.51 104.818 1156.99 102.186 1156.99 99.4875V16.9505C1156.99 14.252 1156.51 11.6035 1155.56 9.02164C1154.61 6.43976 1153.49 4.22433 1152.21 2.39203V1.57582H1173.12V2.39203C1171.84 4.22433 1170.72 6.43976 1169.77 9.02164C1168.81 11.6202 1168.34 14.252 1168.34 16.9505V99.4875C1168.34 102.186 1168.81 104.834 1169.77 107.416C1170.72 109.998 1171.84 112.214 1173.12 114.046V114.862H1152.21V114.046Z" fill="#2C2C32"/>
<path d="M1191.1 16.6205C1189.93 13.3889 1188.7 10.7071 1187.44 8.6083C1186.16 6.49283 1184.51 4.42732 1182.49 2.37847V1.56226H1206.43V2.37847C1204.19 4.64387 1203.07 7.60886 1203.07 11.2735C1203.07 13.4389 1203.5 15.5877 1204.36 17.7532L1234.37 97.5417L1264.53 17.7532C1265.59 15.1713 1266.12 12.7393 1266.12 10.4739C1266.12 7.02586 1264.62 4.32737 1261.65 2.39512V1.57892H1279.85V2.39512C1277.19 3.91094 1275.04 5.79321 1273.38 8.05861C1271.72 10.324 1270.21 13.239 1268.83 16.8037L1231.16 115.682H1228.77L1191.1 16.6205Z" fill="#2C2C32"/>
<path d="M1260.75 114.059C1263.41 112.543 1265.6 110.611 1267.29 108.229C1269 105.863 1270.52 102.948 1271.92 99.4836L1310.23 0.755783H1312.62L1351.1 99.8001C1352.38 103.148 1353.62 105.847 1354.84 107.896C1356.06 109.944 1357.68 111.993 1359.7 114.042V114.858H1335.77V114.042C1336.72 113.076 1337.56 111.777 1338.25 110.161C1338.94 108.545 1339.28 106.83 1339.28 104.981C1339.28 103.148 1338.91 101.316 1338.17 99.467L1328.76 75.1973H1285.34L1275.93 99.467C1274.98 101.849 1274.5 103.998 1274.5 105.947C1274.5 109.195 1276.04 111.893 1279.13 114.042V114.858H1260.78V114.059H1260.75ZM1307.04 18.729L1286.46 71.9658H1327.47L1307.04 18.729Z" fill="#2C2C32"/>
<path d="M1368.98 114.046C1370.26 112.214 1371.38 109.998 1372.33 107.416C1373.28 104.818 1373.76 102.186 1373.76 99.4876V16.9506C1373.76 14.2521 1373.28 11.6036 1372.33 9.02175C1371.38 6.43986 1370.26 4.22444 1368.98 2.39213V1.57593H1390.53V2.39213C1389.25 4.22444 1388.13 6.43986 1387.18 9.02175C1386.23 11.6203 1385.75 14.2521 1385.75 16.9506V111.614H1413.68C1419.1 111.614 1423.6 110.731 1427.16 108.949C1430.73 107.167 1433.62 104.735 1435.85 101.67C1438.09 98.6048 1440.27 94.6237 1442.41 89.7764H1444L1440.81 114.862H1369V114.046H1368.98Z" fill="#2C2C32"/>
</svg>
