<svg width="1252" height="263" viewBox="0 0 1252 263" fill="none" xmlns="http://www.w3.org/2000/svg">
<path d="M117.888 89.71C117.888 78.255 112.958 70.135 100.778 65.93C110.783 62.015 116.003 54.04 116.003 43.02C116.003 26.49 103.968 16.34 84.2483 16.34C64.8183 16.34 52.9283 28.955 51.4783 48.24L72.7933 52.59C73.3733 40.99 77.7233 35.915 84.1033 35.915C90.7733 35.915 93.5283 40.265 93.5283 46.79C93.5283 53.75 89.9033 57.52 83.8133 57.52H75.4033V76.37H83.3783C90.3383 76.37 93.9633 80.72 93.9633 88.84C93.9633 96.815 90.4833 100.585 83.9583 100.585C76.4183 100.585 73.2283 94.64 72.6483 82.46L50.4633 86.81C51.4783 110.155 64.2383 120.16 84.2483 120.16C105.708 120.16 117.888 108.27 117.888 89.71ZM127.987 119H151.187V77.095H170.762V119H193.962V17.5H170.762V56.795H151.187V17.5H127.987V119ZM253.373 119H276.573L251.778 17.5H225.678L200.883 119H222.633L226.258 101.165H249.748L253.373 119ZM230.318 81.3L238.003 43.745L245.688 81.3H230.318ZM283.545 119H306.745V77.095H326.32V119H349.52V17.5H326.32V56.795H306.745V17.5H283.545V119ZM365.43 119H386.6L410.38 57.955V119H431.55V17.5H410.38L386.6 78.545V17.5H365.43V119ZM508.212 119V17.5H476.602C456.447 17.5 442.817 30.985 442.817 50.85C442.817 64.77 450.357 76.37 461.667 80.72L440.062 119H465.002L483.272 84.2H485.737V119H508.212ZM479.212 64.48C471.527 64.48 466.742 59.26 466.742 50.85C466.742 42.44 471.527 37.22 479.212 37.22H485.737V64.48H479.212ZM562.947 120.16C570.052 120.16 577.447 117.55 584.262 112.91L588.757 119H614.857L598.762 97.685C603.257 90.58 606.447 82.025 607.317 72.6L587.887 70.135C587.307 73.76 586.582 77.095 585.567 80.14L576.722 68.395C591.512 58.825 595.427 50.705 595.427 40.845C595.427 26.78 584.407 16.34 568.892 16.34C552.217 16.34 540.762 27.215 540.762 42.875C540.762 50.85 542.937 56.65 549.317 66.075C536.702 75.355 532.787 82.895 532.787 92.9C532.787 108.85 544.822 120.16 562.947 120.16ZM561.207 43.165C561.207 38.525 563.962 35.335 568.167 35.335C572.662 35.335 574.982 38.235 574.982 42.005C574.982 46.645 572.952 49.98 566.427 54.765C562.367 49.255 561.207 46.645 561.207 43.165ZM555.117 90.58C555.117 86.81 556.277 83.765 559.902 80.43L572.662 97.395C570.052 98.99 567.297 99.86 564.687 99.86C558.742 99.86 555.117 96.38 555.117 90.58ZM624.289 116.1H627.189V119H624.289V116.1ZM621.389 116.1H624.289V119H621.389V116.1ZM627.189 116.1H630.089V119H627.189V116.1ZM630.089 116.1H632.989V119H630.089V116.1ZM632.989 116.1H635.889V119H632.989V116.1ZM635.889 116.1H638.789V119H635.889V116.1ZM638.789 116.1H641.689V119H638.789V116.1ZM641.689 116.1H644.589V119H641.689V116.1ZM644.589 116.1H647.489V119H644.589V116.1ZM635.889 116.1H632.989V113.2H635.889V116.1ZM632.989 116.1H630.089V113.2H632.989V116.1ZM638.789 116.1H635.889V113.2H638.789V116.1ZM641.689 116.1H638.789V113.2H641.689V116.1ZM644.589 116.1H641.689V113.2H644.589V116.1ZM635.889 113.2H632.989V110.3H635.889V113.2ZM635.889 110.3H632.989V107.4H635.889V110.3ZM638.789 113.2H635.889V110.3H638.789V113.2ZM641.689 113.2H638.789V110.3H641.689V113.2ZM638.789 110.3H635.889V107.4H638.789V110.3ZM641.689 110.3H638.789V107.4H641.689V110.3ZM638.789 107.4H635.889V104.5H638.789V107.4ZM641.689 107.4H638.789V104.5H641.689V107.4ZM638.789 104.5H635.889V101.6H638.789V104.5ZM641.689 104.5H638.789V101.6H641.689V104.5ZM638.789 101.6H635.889V98.7H638.789V101.6ZM641.689 101.6H638.789V98.7H641.689V101.6ZM638.789 98.7H635.889V95.8H638.789V98.7ZM641.689 98.7H638.789V95.8H641.689V98.7ZM638.789 95.8H635.889V92.9H638.789V95.8ZM641.689 95.8H638.789V92.9H641.689V95.8ZM638.789 92.9H635.889V90H638.789V92.9ZM641.689 92.9H638.789V90H641.689V92.9ZM638.789 90H635.889V87.1H638.789V90ZM641.689 90H638.789V87.1H641.689V90ZM638.789 87.1H635.889V84.2H638.789V87.1ZM638.789 84.2H635.889V81.3H638.789V84.2ZM641.689 87.1H638.789V84.2H641.689V87.1ZM644.589 101.6H641.689V98.7H644.589V101.6ZM644.589 98.7H641.689V95.8H644.589V98.7ZM644.589 95.8H641.689V92.9H644.589V95.8ZM644.589 92.9H641.689V90H644.589V92.9ZM644.589 90H641.689V87.1H644.589V90ZM644.589 87.1H641.689V84.2H644.589V87.1ZM641.689 84.2H638.789V81.3H641.689V84.2ZM644.589 84.2H641.689V81.3H644.589V84.2ZM641.689 81.3H638.789V78.4H641.689V81.3ZM644.589 81.3H641.689V78.4H644.589V81.3ZM641.689 78.4H638.789V75.5H641.689V78.4ZM644.589 78.4H641.689V75.5H644.589V78.4ZM641.689 75.5H638.789V72.6H641.689V75.5ZM644.589 75.5H641.689V72.6H644.589V75.5ZM641.689 72.6H638.789V69.7H641.689V72.6ZM644.589 72.6H641.689V69.7H644.589V72.6ZM641.689 69.7H638.789V66.8H641.689V69.7ZM644.589 69.7H641.689V66.8H644.589V69.7ZM641.689 66.8H638.789V63.9H641.689V66.8ZM644.589 66.8H641.689V63.9H644.589V66.8ZM641.689 63.9H638.789V61H641.689V63.9ZM644.589 63.9H641.689V61H644.589V63.9ZM641.689 61H638.789V58.1H641.689V61ZM644.589 61H641.689V58.1H644.589V61ZM641.689 58.1H638.789V55.2H641.689V58.1ZM644.589 58.1H641.689V55.2H644.589V58.1ZM647.489 66.8H644.589V63.9H647.489V66.8ZM647.489 69.7H644.589V66.8H647.489V69.7ZM647.489 63.9H644.589V61H647.489V63.9ZM647.489 61H644.589V58.1H647.489V61ZM647.489 58.1H644.589V55.2H647.489V58.1ZM644.589 55.2H641.689V52.3H644.589V55.2ZM647.489 55.2H644.589V52.3H647.489V55.2ZM644.589 52.3H641.689V49.4H644.589V52.3ZM647.489 52.3H644.589V49.4H647.489V52.3ZM644.589 49.4H641.689V46.5H644.589V49.4ZM647.489 49.4H644.589V46.5H647.489V49.4ZM644.589 46.5H641.689V43.6H644.589V46.5ZM647.489 46.5H644.589V43.6H647.489V46.5ZM644.589 43.6H641.689V40.7H644.589V43.6ZM647.489 43.6H644.589V40.7H647.489V43.6ZM644.589 40.7H641.689V37.8H644.589V40.7ZM647.489 40.7H644.589V37.8H647.489V40.7ZM644.589 37.8H641.689V34.9H644.589V37.8ZM647.489 37.8H644.589V34.9H647.489V37.8ZM644.589 34.9H641.689V32H644.589V34.9ZM644.589 32H641.689V29.1H644.589V32ZM647.489 34.9H644.589V32H647.489V34.9ZM647.489 32H644.589V29.1H647.489V32ZM650.389 32H647.489V29.1H650.389V32ZM647.489 29.1H644.589V26.2H647.489V29.1ZM647.489 26.2H644.589V23.3H647.489V26.2ZM647.489 23.3H644.589V20.4H647.489V23.3ZM650.389 23.3H647.489V20.4H650.389V23.3ZM650.389 26.2H647.489V23.3H650.389V26.2ZM650.389 29.1H647.489V26.2H650.389V29.1ZM653.289 29.1H650.389V26.2H653.289V29.1ZM653.289 32H650.389V29.1H653.289V32ZM650.389 34.9H647.489V32H650.389V34.9ZM653.289 34.9H650.389V32H653.289V34.9ZM650.389 37.8H647.489V34.9H650.389V37.8ZM653.289 37.8H650.389V34.9H653.289V37.8ZM650.389 40.7H647.489V37.8H650.389V40.7ZM653.289 40.7H650.389V37.8H653.289V40.7ZM650.389 43.6H647.489V40.7H650.389V43.6ZM653.289 43.6H650.389V40.7H653.289V43.6ZM656.189 37.8H653.289V34.9H656.189V37.8ZM656.189 34.9H653.289V32H656.189V34.9ZM656.189 40.7H653.289V37.8H656.189V40.7ZM659.089 40.7H656.189V37.8H659.089V40.7ZM656.189 43.6H653.289V40.7H656.189V43.6ZM659.089 43.6H656.189V40.7H659.089V43.6ZM656.189 46.5H653.289V43.6H656.189V46.5ZM659.089 46.5H656.189V43.6H659.089V46.5ZM661.989 46.5H659.089V43.6H661.989V46.5ZM653.289 46.5H650.389V43.6H653.289V46.5ZM656.189 49.4H653.289V46.5H656.189V49.4ZM659.089 49.4H656.189V46.5H659.089V49.4ZM661.989 49.4H659.089V46.5H661.989V49.4ZM653.289 49.4H650.389V46.5H653.289V49.4ZM659.089 52.3H656.189V49.4H659.089V52.3ZM661.989 52.3H659.089V49.4H661.989V52.3ZM664.889 52.3H661.989V49.4H664.889V52.3ZM656.189 52.3H653.289V49.4H656.189V52.3ZM659.089 55.2H656.189V52.3H659.089V55.2ZM661.989 55.2H659.089V52.3H661.989V55.2ZM664.889 55.2H661.989V52.3H664.889V55.2ZM656.189 55.2H653.289V52.3H656.189V55.2ZM661.989 58.1H659.089V55.2H661.989V58.1ZM664.889 58.1H661.989V55.2H664.889V58.1ZM667.789 58.1H664.889V55.2H667.789V58.1ZM659.089 58.1H656.189V55.2H659.089V58.1ZM656.189 58.1H653.289V55.2H656.189V58.1ZM661.989 61H659.089V58.1H661.989V61ZM664.889 61H661.989V58.1H664.889V61ZM667.789 61H664.889V58.1H667.789V61ZM659.089 61H656.189V58.1H659.089V61ZM664.889 63.9H661.989V61H664.889V63.9ZM667.789 63.9H664.889V61H667.789V63.9ZM670.689 63.9H667.789V61H670.689V63.9ZM661.989 63.9H659.089V61H661.989V63.9ZM659.089 63.9H656.189V61H659.089V63.9ZM664.889 66.8H661.989V63.9H664.889V66.8ZM667.789 66.8H664.889V63.9H667.789V66.8ZM670.689 66.8H667.789V63.9H670.689V66.8ZM661.989 66.8H659.089V63.9H661.989V66.8ZM667.789 69.7H664.889V66.8H667.789V69.7ZM670.689 69.7H667.789V66.8H670.689V69.7ZM673.589 69.7H670.689V66.8H673.589V69.7ZM664.889 69.7H661.989V66.8H664.889V69.7ZM661.989 69.7H659.089V66.8H661.989V69.7ZM667.789 72.6H664.889V69.7H667.789V72.6ZM670.689 72.6H667.789V69.7H670.689V72.6ZM673.589 72.6H670.689V69.7H673.589V72.6ZM664.889 72.6H661.989V69.7H664.889V72.6ZM670.689 75.5H667.789V72.6H670.689V75.5ZM673.589 75.5H670.689V72.6H673.589V75.5ZM676.489 75.5H673.589V72.6H676.489V75.5ZM667.789 75.5H664.889V72.6H667.789V75.5ZM664.889 75.5H661.989V72.6H664.889V75.5ZM670.689 78.4H667.789V75.5H670.689V78.4ZM673.589 78.4H670.689V75.5H673.589V78.4ZM676.489 78.4H673.589V75.5H676.489V78.4ZM667.789 78.4H664.889V75.5H667.789V78.4ZM673.589 81.3H670.689V78.4H673.589V81.3ZM676.489 81.3H673.589V78.4H676.489V81.3ZM679.389 81.3H676.489V78.4H679.389V81.3ZM670.689 81.3H667.789V78.4H670.689V81.3ZM667.789 81.3H664.889V78.4H667.789V81.3ZM673.589 84.2H670.689V81.3H673.589V84.2ZM676.489 84.2H673.589V81.3H676.489V84.2ZM679.389 84.2H676.489V81.3H679.389V84.2ZM670.689 84.2H667.789V81.3H670.689V84.2ZM676.489 87.1H673.589V84.2H676.489V87.1ZM679.389 87.1H676.489V84.2H679.389V87.1ZM682.289 87.1H679.389V84.2H682.289V87.1ZM673.589 87.1H670.689V84.2H673.589V87.1ZM670.689 87.1H667.789V84.2H670.689V87.1ZM676.489 90H673.589V87.1H676.489V90ZM679.389 90H676.489V87.1H679.389V90ZM682.289 90H679.389V87.1H682.289V90ZM673.589 90H670.689V87.1H673.589V90ZM679.389 92.9H676.489V90H679.389V92.9ZM682.289 92.9H679.389V90H682.289V92.9ZM685.189 92.9H682.289V90H685.189V92.9ZM676.489 92.9H673.589V90H676.489V92.9ZM673.589 92.9H670.689V90H673.589V92.9ZM679.389 95.8H676.489V92.9H679.389V95.8ZM682.289 95.8H679.389V92.9H682.289V95.8ZM685.189 95.8H682.289V92.9H685.189V95.8ZM676.489 95.8H673.589V92.9H676.489V95.8ZM682.289 98.7H679.389V95.8H682.289V98.7ZM685.189 98.7H682.289V95.8H685.189V98.7ZM688.089 98.7H685.189V95.8H688.089V98.7ZM679.389 98.7H676.489V95.8H679.389V98.7ZM676.489 98.7H673.589V95.8H676.489V98.7ZM682.289 101.6H679.389V98.7H682.289V101.6ZM685.189 101.6H682.289V98.7H685.189V101.6ZM688.089 101.6H685.189V98.7H688.089V101.6ZM679.389 101.6H676.489V98.7H679.389V101.6ZM685.189 104.5H682.289V101.6H685.189V104.5ZM688.089 104.5H685.189V101.6H688.089V104.5ZM690.989 104.5H688.089V101.6H690.989V104.5ZM693.889 95.8H690.989V92.9H693.889V95.8ZM693.889 104.5H690.989V101.6H693.889V104.5ZM693.889 101.6H690.989V98.7H693.889V101.6ZM696.789 101.6H693.889V98.7H696.789V101.6ZM693.889 98.7H690.989V95.8H693.889V98.7ZM696.789 98.7H693.889V95.8H696.789V98.7ZM696.789 95.8H693.889V92.9H696.789V95.8ZM699.689 95.8H696.789V92.9H699.689V95.8ZM696.789 92.9H693.889V90H696.789V92.9ZM699.689 92.9H696.789V90H699.689V92.9ZM699.689 90H696.789V87.1H699.689V90ZM696.789 90H693.889V87.1H696.789V90ZM702.589 90H699.689V87.1H702.589V90ZM699.689 87.1H696.789V84.2H699.689V87.1ZM702.589 87.1H699.689V84.2H702.589V87.1ZM702.589 84.2H699.689V81.3H702.589V84.2ZM699.689 84.2H696.789V81.3H699.689V84.2ZM705.489 84.2H702.589V81.3H705.489V84.2ZM702.589 81.3H699.689V78.4H702.589V81.3ZM705.489 81.3H702.589V78.4H705.489V81.3ZM705.489 78.4H702.589V75.5H705.489V78.4ZM702.589 78.4H699.689V75.5H702.589V78.4ZM708.389 78.4H705.489V75.5H708.389V78.4ZM705.489 75.5H702.589V72.6H705.489V75.5ZM708.389 75.5H705.489V72.6H708.389V75.5ZM708.389 72.6H705.489V69.7H708.389V72.6ZM705.489 72.6H702.589V69.7H705.489V72.6ZM708.389 69.7H705.489V66.8H708.389V69.7ZM711.289 69.7H708.389V66.8H711.289V69.7ZM711.289 66.8H708.389V63.9H711.289V66.8ZM708.389 66.8H705.489V63.9H708.389V66.8ZM711.289 63.9H708.389V61H711.289V63.9ZM714.189 63.9H711.289V61H714.189V63.9ZM714.189 61H711.289V58.1H714.189V61ZM711.289 61H708.389V58.1H711.289V61ZM714.189 58.1H711.289V55.2H714.189V58.1ZM717.089 58.1H714.189V55.2H717.089V58.1ZM717.089 55.2H714.189V52.3H717.089V55.2ZM714.189 55.2H711.289V52.3H714.189V55.2ZM714.189 52.3H711.289V49.4H714.189V52.3ZM717.089 52.3H714.189V49.4H717.089V52.3ZM719.989 52.3H717.089V49.4H719.989V52.3ZM719.989 49.4H717.089V46.5H719.989V49.4ZM717.089 49.4H714.189V46.5H717.089V49.4ZM719.989 46.5H717.089V43.6H719.989V46.5ZM717.089 46.5H714.189V43.6H717.089V46.5ZM722.889 46.5H719.989V43.6H722.889V46.5ZM722.889 43.6H719.989V40.7H722.889V43.6ZM719.989 43.6H717.089V40.7H719.989V43.6ZM725.789 43.6H722.889V40.7H725.789V43.6ZM722.889 40.7H719.989V37.8H722.889V40.7ZM719.989 40.7H717.089V37.8H719.989V40.7ZM725.789 40.7H722.889V37.8H725.789V40.7ZM725.789 37.8H722.889V34.9H725.789V37.8ZM722.889 37.8H719.989V34.9H722.889V37.8ZM728.689 37.8H725.789V34.9H728.689V37.8ZM725.789 34.9H722.889V32H725.789V34.9ZM722.889 34.9H719.989V32H722.889V34.9ZM728.689 34.9H725.789V32H728.689V34.9ZM731.589 37.8H728.689V34.9H731.589V37.8ZM731.589 34.9H728.689V32H731.589V34.9ZM728.689 32H725.789V29.1H728.689V32ZM725.789 32H722.889V29.1H725.789V32ZM731.589 32H728.689V29.1H731.589V32ZM728.689 46.5H725.789V43.6H728.689V46.5ZM725.789 46.5H722.889V43.6H725.789V46.5ZM728.689 43.6H725.789V40.7H728.689V43.6ZM731.589 46.5H728.689V43.6H731.589V46.5ZM731.589 43.6H728.689V40.7H731.589V43.6ZM728.689 40.7H725.789V37.8H728.689V40.7ZM731.589 40.7H728.689V37.8H731.589V40.7ZM734.489 37.8H731.589V34.9H734.489V37.8ZM734.489 34.9H731.589V32H734.489V34.9ZM734.489 46.5H731.589V43.6H734.489V46.5ZM728.689 49.4H725.789V46.5H728.689V49.4ZM731.589 49.4H728.689V46.5H731.589V49.4ZM734.489 49.4H731.589V46.5H734.489V49.4ZM728.689 52.3H725.789V49.4H728.689V52.3ZM731.589 52.3H728.689V49.4H731.589V52.3ZM734.489 52.3H731.589V49.4H734.489V52.3ZM728.689 55.2H725.789V52.3H728.689V55.2ZM731.589 55.2H728.689V52.3H731.589V55.2ZM734.489 55.2H731.589V52.3H734.489V55.2ZM728.689 58.1H725.789V55.2H728.689V58.1ZM731.589 58.1H728.689V55.2H731.589V58.1ZM734.489 58.1H731.589V55.2H734.489V58.1ZM728.689 61H725.789V58.1H728.689V61ZM731.589 61H728.689V58.1H731.589V61ZM734.489 61H731.589V58.1H734.489V61ZM737.389 61H734.489V58.1H737.389V61ZM728.689 63.9H725.789V61H728.689V63.9ZM731.589 63.9H728.689V61H731.589V63.9ZM734.489 63.9H731.589V61H734.489V63.9ZM728.689 66.8H725.789V63.9H728.689V66.8ZM731.589 66.8H728.689V63.9H731.589V66.8ZM734.489 66.8H731.589V63.9H734.489V66.8ZM728.689 69.7H725.789V66.8H728.689V69.7ZM731.589 69.7H728.689V66.8H731.589V69.7ZM734.489 69.7H731.589V66.8H734.489V69.7ZM728.689 72.6H725.789V69.7H728.689V72.6ZM731.589 72.6H728.689V69.7H731.589V72.6ZM734.489 72.6H731.589V69.7H734.489V72.6ZM728.689 75.5H725.789V72.6H728.689V75.5ZM731.589 75.5H728.689V72.6H731.589V75.5ZM734.489 75.5H731.589V72.6H734.489V75.5ZM728.689 78.4H725.789V75.5H728.689V78.4ZM731.589 78.4H728.689V75.5H731.589V78.4ZM734.489 78.4H731.589V75.5H734.489V78.4ZM737.389 63.9H734.489V61H737.389V63.9ZM737.389 66.8H734.489V63.9H737.389V66.8ZM737.389 69.7H734.489V66.8H737.389V69.7ZM737.389 72.6H734.489V69.7H737.389V72.6ZM737.389 75.5H734.489V72.6H737.389V75.5ZM737.389 78.4H734.489V75.5H737.389V78.4ZM734.489 81.3H731.589V78.4H734.489V81.3ZM737.389 81.3H734.489V78.4H737.389V81.3ZM734.489 84.2H731.589V81.3H734.489V84.2ZM734.489 87.1H731.589V84.2H734.489V87.1ZM734.489 90H731.589V87.1H734.489V90ZM734.489 92.9H731.589V90H734.489V92.9ZM734.489 95.8H731.589V92.9H734.489V95.8ZM734.489 98.7H731.589V95.8H734.489V98.7ZM731.589 81.3H728.689V78.4H731.589V81.3ZM731.589 84.2H728.689V81.3H731.589V84.2ZM731.589 87.1H728.689V84.2H731.589V87.1ZM731.589 90H728.689V87.1H731.589V90ZM731.589 92.9H728.689V90H731.589V92.9ZM731.589 95.8H728.689V92.9H731.589V95.8ZM731.589 98.7H728.689V95.8H731.589V98.7ZM737.389 84.2H734.489V81.3H737.389V84.2ZM737.389 87.1H734.489V84.2H737.389V87.1ZM737.389 90H734.489V87.1H737.389V90ZM737.389 92.9H734.489V90H737.389V92.9ZM737.389 95.8H734.489V92.9H737.389V95.8ZM737.389 98.7H734.489V95.8H737.389V98.7ZM740.289 90H737.389V87.1H740.289V90ZM740.289 87.1H737.389V84.2H740.289V87.1ZM740.289 92.9H737.389V90H740.289V92.9ZM740.289 95.8H737.389V92.9H740.289V95.8ZM740.289 98.7H737.389V95.8H740.289V98.7ZM734.489 101.6H731.589V98.7H734.489V101.6ZM734.489 104.5H731.589V101.6H734.489V104.5ZM734.489 107.4H731.589V104.5H734.489V107.4ZM737.389 110.3H734.489V107.4H737.389V110.3ZM731.589 101.6H728.689V98.7H731.589V101.6ZM731.589 104.5H728.689V101.6H731.589V104.5ZM731.589 107.4H728.689V104.5H731.589V107.4ZM734.489 110.3H731.589V107.4H734.489V110.3ZM731.589 110.3H728.689V107.4H731.589V110.3ZM737.389 101.6H734.489V98.7H737.389V101.6ZM737.389 104.5H734.489V101.6H737.389V104.5ZM737.389 107.4H734.489V104.5H737.389V107.4ZM740.289 110.3H737.389V107.4H740.289V110.3ZM740.289 101.6H737.389V98.7H740.289V101.6ZM740.289 104.5H737.389V101.6H740.289V104.5ZM740.289 107.4H737.389V104.5H740.289V107.4ZM743.189 110.3H740.289V107.4H743.189V110.3ZM737.389 113.2H734.489V110.3H737.389V113.2ZM734.489 113.2H731.589V110.3H734.489V113.2ZM740.289 113.2H737.389V110.3H740.289V113.2ZM743.189 113.2H740.289V110.3H743.189V113.2ZM737.389 116.1H734.489V113.2H737.389V116.1ZM734.489 116.1H731.589V113.2H734.489V116.1ZM740.289 116.1H737.389V113.2H740.289V116.1ZM743.189 116.1H740.289V113.2H743.189V116.1ZM734.489 116.1H737.389V119H734.489V116.1ZM731.589 116.1H734.489V119H731.589V116.1ZM728.689 116.1H731.589V119H728.689V116.1ZM737.389 116.1H740.289V119H737.389V116.1ZM740.289 116.1H743.189V119H740.289V116.1ZM746.089 116.1H743.189V113.2H746.089V116.1ZM743.189 116.1H746.089V119H743.189V116.1ZM748.989 116.1H751.889V119H748.989V116.1ZM725.789 116.1H728.689V119H725.789V116.1ZM722.889 116.1H725.789V119H722.889V116.1ZM653.289 116.1H656.189V119H653.289V116.1ZM746.089 116.1H748.989V119H746.089V116.1ZM751.889 116.1H754.789V119H751.889V116.1ZM754.789 116.1H757.689V119H754.789V116.1ZM734.489 43.6H731.589V40.7H734.489V43.6ZM734.489 40.7H731.589V37.8H734.489V40.7ZM728.689 29.1H725.789V26.2H728.689V29.1ZM725.789 29.1H722.889V26.2H725.789V29.1ZM731.589 29.1H728.689V26.2H731.589V29.1ZM728.689 26.2H725.789V23.3H728.689V26.2ZM731.589 26.2H728.689V23.3H731.589V26.2ZM728.689 23.3H725.789V20.4H728.689V23.3ZM731.589 23.3H728.689V20.4H731.589V23.3ZM731.589 20.4H728.689V17.5H731.589V20.4ZM728.689 14.6H731.589V17.5H728.689V14.6ZM682.289 104.5H679.389V101.6H682.289V104.5ZM679.389 104.5H676.489V101.6H679.389V104.5ZM685.189 107.4H682.289V104.5H685.189V107.4ZM688.089 107.4H685.189V104.5H688.089V107.4ZM690.989 107.4H688.089V104.5H690.989V107.4ZM693.889 107.4H690.989V104.5H693.889V107.4ZM682.289 107.4H679.389V104.5H682.289V107.4ZM685.189 110.3H682.289V107.4H685.189V110.3ZM688.089 110.3H685.189V107.4H688.089V110.3ZM690.989 110.3H688.089V107.4H690.989V110.3ZM685.189 113.2H682.289V110.3H685.189V113.2ZM688.089 113.2H685.189V110.3H688.089V113.2ZM685.189 116.1H682.289V113.2H685.189V116.1ZM688.089 116.1H685.189V113.2H688.089V116.1ZM685.189 116.1H688.089V119H685.189V116.1ZM690.989 113.2H688.089V110.3H690.989V113.2ZM682.289 110.3H679.389V107.4H682.289V110.3ZM647.489 20.4H644.589V17.5H647.489V20.4ZM644.589 14.6H647.489V17.5H644.589V14.6ZM647.489 116.1H650.389V119H647.489V116.1ZM650.389 116.1H653.289V119H650.389V116.1ZM835.944 26.2H838.844V29.1H835.944V26.2ZM835.944 20.4H838.844V23.3H835.944V20.4ZM844.644 17.5H847.544V20.4H844.644V17.5ZM833.044 20.4H835.944V23.3H833.044V20.4ZM841.744 17.5H844.644V20.4H841.744V17.5ZM850.444 17.5H853.344V20.4H850.444V17.5ZM847.544 17.5H850.444V20.4H847.544V17.5ZM838.844 17.5H841.744V20.4H838.844V17.5ZM835.944 17.5H838.844V20.4H835.944V17.5ZM833.044 17.5H835.944V20.4H833.044V17.5ZM830.144 17.5H833.044V20.4H830.144V17.5ZM827.244 17.5H830.144V20.4H827.244V17.5ZM824.344 17.5H827.244V20.4H824.344V17.5ZM821.444 17.5H824.344V20.4H821.444V17.5ZM833.044 29.1H835.944V32H833.044V29.1ZM830.144 29.1H833.044V32H830.144V29.1ZM835.944 26.2H838.844V29.1H835.944V26.2ZM838.844 23.3H841.744V26.2H838.844V23.3ZM838.844 20.4H841.744V23.3H838.844V20.4ZM841.744 20.4H844.644V23.3H841.744V20.4ZM833.044 26.2H835.944V29.1H833.044V26.2ZM835.944 23.3H838.844V26.2H835.944V23.3ZM835.944 23.3H838.844V26.2H835.944V23.3ZM833.044 23.3H835.944V26.2H833.044V23.3ZM833.044 32H835.944V34.9H833.044V32ZM835.944 29.1H838.844V32H835.944V29.1ZM830.144 34.9H833.044V37.8H830.144V34.9ZM827.244 34.9H830.144V37.8H827.244V34.9ZM830.144 32H833.044V34.9H830.144V32ZM833.044 34.9H835.944V37.8H833.044V34.9ZM792.444 104.5H795.344V107.4H792.444V104.5ZM795.344 104.5H798.244V107.4H795.344V104.5ZM798.244 104.5H801.144V107.4H798.244V104.5ZM798.244 101.6H801.144V104.5H798.244V101.6ZM798.244 98.7H801.144V101.6H798.244V98.7ZM795.344 98.7H798.244V101.6H795.344V98.7ZM801.144 101.6H804.044V104.5H801.144V101.6ZM801.144 98.7H804.044V101.6H801.144V98.7ZM798.244 95.8H801.144V98.7H798.244V95.8ZM801.144 95.8H804.044V98.7H801.144V95.8ZM801.144 92.9H804.044V95.8H801.144V92.9ZM798.244 92.9H801.144V95.8H798.244V92.9ZM804.044 92.9H806.944V95.8H804.044V92.9ZM801.144 90H804.044V92.9H801.144V90ZM804.044 90H806.944V92.9H804.044V90ZM801.144 87.1H804.044V90H801.144V87.1ZM798.244 87.1H801.144V90H798.244V87.1ZM804.044 87.1H806.944V90H804.044V87.1ZM806.944 87.1H809.844V90H806.944V87.1ZM801.144 84.2H804.044V87.1H801.144V84.2ZM798.244 84.2H801.144V87.1H798.244V84.2ZM804.044 84.2H806.944V87.1H804.044V84.2ZM806.944 84.2H809.844V87.1H806.944V84.2ZM801.144 81.3H804.044V84.2H801.144V81.3ZM798.244 81.3H801.144V84.2H798.244V81.3ZM795.344 81.3H798.244V84.2H795.344V81.3ZM798.244 78.4H801.144V81.3H798.244V78.4ZM795.344 78.4H798.244V81.3H795.344V78.4ZM798.244 75.5H801.144V78.4H798.244V75.5ZM795.344 75.5H798.244V78.4H795.344V75.5ZM798.244 72.6H801.144V75.5H798.244V72.6ZM801.144 75.5H804.044V78.4H801.144V75.5ZM801.144 72.6H804.044V75.5H801.144V72.6ZM795.344 72.6H798.244V75.5H795.344V72.6ZM792.444 75.5H795.344V78.4H792.444V75.5ZM792.444 72.6H795.344V75.5H792.444V72.6ZM792.444 69.7H795.344V72.6H792.444V69.7ZM792.444 66.8H795.344V69.7H792.444V66.8ZM792.444 63.9H795.344V66.8H792.444V63.9ZM792.444 61H795.344V63.9H792.444V61ZM789.544 69.7H792.444V72.6H789.544V69.7ZM789.544 66.8H792.444V69.7H789.544V66.8ZM789.544 63.9H792.444V66.8H789.544V63.9ZM789.544 61H792.444V63.9H789.544V61ZM786.644 63.9H789.544V66.8H786.644V63.9ZM786.644 61H789.544V63.9H786.644V61ZM786.644 58.1H789.544V61H786.644V58.1ZM786.644 55.2H789.544V58.1H786.644V55.2ZM783.744 58.1H786.644V61H783.744V58.1ZM783.744 55.2H786.644V58.1H783.744V55.2ZM783.744 52.3H786.644V55.2H783.744V52.3ZM783.744 49.4H786.644V52.3H783.744V49.4ZM780.844 52.3H783.744V55.2H780.844V52.3ZM780.844 49.4H783.744V52.3H780.844V49.4ZM780.844 46.5H783.744V49.4H780.844V46.5ZM780.844 43.6H783.744V46.5H780.844V43.6ZM777.944 46.5H780.844V49.4H777.944V46.5ZM777.944 43.6H780.844V46.5H777.944V43.6ZM777.944 40.7H780.844V43.6H777.944V40.7ZM777.944 37.8H780.844V40.7H777.944V37.8ZM775.044 40.7H777.944V43.6H775.044V40.7ZM775.044 37.8H777.944V40.7H775.044V37.8ZM775.044 34.9H777.944V37.8H775.044V34.9ZM775.044 32H777.944V34.9H775.044V32ZM772.144 34.9H775.044V37.8H772.144V34.9ZM772.144 37.8H775.044V40.7H772.144V37.8ZM772.144 32H775.044V34.9H772.144V32ZM772.144 29.1H775.044V32H772.144V29.1ZM772.144 26.2H775.044V29.1H772.144V26.2ZM769.244 29.1H772.144V32H769.244V29.1ZM769.244 26.2H772.144V29.1H769.244V26.2ZM769.244 23.3H772.144V26.2H769.244V23.3ZM772.144 23.3H775.044V26.2H772.144V23.3ZM766.344 23.3H769.244V26.2H766.344V23.3ZM763.444 23.3H766.344V26.2H763.444V23.3ZM763.444 20.4H766.344V23.3H763.444V20.4ZM760.544 20.4H763.444V23.3H760.544V20.4ZM763.444 17.5H766.344V20.4H763.444V17.5ZM766.344 20.4H769.244V23.3H766.344V20.4ZM751.844 17.5H754.744V20.4H751.844V17.5ZM754.744 17.5H757.644V20.4H754.744V17.5ZM757.644 17.5H760.544V20.4H757.644V17.5ZM760.544 17.5H763.444V20.4H760.544V17.5ZM772.144 17.5H775.044V20.4H772.144V17.5ZM775.044 17.5H777.944V20.4H775.044V17.5ZM766.344 17.5H769.244V20.4H766.344V17.5ZM769.244 17.5H772.144V20.4H769.244V17.5ZM772.144 20.4H775.044V23.3H772.144V20.4ZM777.944 17.5H780.844V20.4H777.944V17.5ZM780.844 17.5H783.744V20.4H780.844V17.5ZM783.744 17.5H786.644V20.4H783.744V17.5ZM786.644 17.5H789.544V20.4H786.644V17.5ZM795.344 63.9H798.244V66.8H795.344V63.9ZM795.344 61H798.244V63.9H795.344V61ZM792.444 58.1H795.344V61H792.444V58.1ZM792.444 55.2H795.344V58.1H792.444V55.2ZM789.544 58.1H792.444V61H789.544V58.1ZM789.544 55.2H792.444V58.1H789.544V55.2ZM786.644 52.3H789.544V55.2H786.644V52.3ZM786.644 49.4H789.544V52.3H786.644V49.4ZM789.544 52.3H792.444V55.2H789.544V52.3ZM789.544 49.4H792.444V52.3H789.544V49.4ZM786.644 46.5H789.544V49.4H786.644V46.5ZM786.644 43.6H789.544V46.5H786.644V43.6ZM783.744 40.7H786.644V43.6H783.744V40.7ZM783.744 37.8H786.644V40.7H783.744V37.8ZM780.844 34.9H783.744V37.8H780.844V34.9ZM780.844 32H783.744V34.9H780.844V32ZM777.944 29.1H780.844V32H777.944V29.1ZM777.944 26.2H780.844V29.1H777.944V26.2ZM775.044 23.3H777.944V26.2H775.044V23.3ZM775.044 20.4H777.944V23.3H775.044V20.4ZM783.744 46.5H786.644V49.4H783.744V46.5ZM783.744 43.6H786.644V46.5H783.744V43.6ZM780.844 40.7H783.744V43.6H780.844V40.7ZM780.844 37.8H783.744V40.7H780.844V37.8ZM777.944 34.9H780.844V37.8H777.944V34.9ZM777.944 32H780.844V34.9H777.944V32ZM775.044 29.1H777.944V32H775.044V29.1ZM775.044 26.2H777.944V29.1H775.044V26.2ZM766.344 26.2H769.244V29.1H766.344V26.2ZM769.244 32H772.144V34.9H769.244V32ZM769.244 20.4H772.144V23.3H769.244V20.4ZM798.244 69.7H801.144V72.6H798.244V69.7ZM795.344 69.7H798.244V72.6H795.344V69.7ZM798.244 66.8H801.144V69.7H798.244V66.8ZM795.344 66.8H798.244V69.7H795.344V66.8ZM804.044 81.3H806.944V84.2H804.044V81.3ZM801.144 78.4H804.044V81.3H801.144V78.4ZM804.044 78.4H806.944V81.3H804.044V78.4ZM806.944 81.3H809.844V84.2H806.944V81.3ZM809.844 81.3H812.744V84.2H809.844V81.3ZM806.944 78.4H809.844V81.3H806.944V78.4ZM809.844 78.4H812.744V81.3H809.844V78.4ZM809.844 75.5H812.744V78.4H809.844V75.5ZM806.944 75.5H809.844V78.4H806.944V75.5ZM812.744 75.5H815.644V78.4H812.744V75.5ZM809.844 72.6H812.744V75.5H809.844V72.6ZM812.744 72.6H815.644V75.5H812.744V72.6ZM812.744 69.7H815.644V72.6H812.744V69.7ZM815.644 69.7H818.544V72.6H815.644V69.7ZM812.744 66.8H815.644V69.7H812.744V66.8ZM815.644 66.8H818.544V69.7H815.644V66.8ZM815.644 63.9H818.544V66.8H815.644V63.9ZM818.544 63.9H821.444V66.8H818.544V63.9ZM815.644 61H818.544V63.9H815.644V61ZM818.544 61H821.444V63.9H818.544V61ZM818.544 58.1H821.444V61H818.544V58.1ZM821.444 58.1H824.344V61H821.444V58.1ZM818.544 55.2H821.444V58.1H818.544V55.2ZM821.444 55.2H824.344V58.1H821.444V55.2ZM821.444 52.3H824.344V55.2H821.444V52.3ZM824.344 52.3H827.244V55.2H824.344V52.3ZM821.444 49.4H824.344V52.3H821.444V49.4ZM824.344 49.4H827.244V52.3H824.344V49.4ZM824.344 46.5H827.244V49.4H824.344V46.5ZM827.244 46.5H830.144V49.4H827.244V46.5ZM824.344 43.6H827.244V46.5H824.344V43.6ZM827.244 43.6H830.144V46.5H827.244V43.6ZM827.244 40.7H830.144V43.6H827.244V40.7ZM824.344 40.7H827.244V43.6H824.344V40.7ZM821.444 46.5H824.344V49.4H821.444V46.5ZM818.544 52.3H821.444V55.2H818.544V52.3ZM815.644 58.1H818.544V61H815.644V58.1ZM812.744 63.9H815.644V66.8H812.744V63.9ZM809.844 69.7H812.744V72.6H809.844V69.7ZM830.144 40.7H833.044V43.6H830.144V40.7ZM827.244 37.8H830.144V40.7H827.244V37.8ZM830.144 37.8H833.044V40.7H830.144V37.8ZM795.344 101.6H798.244V104.5H795.344V101.6ZM795.344 107.4H798.244V110.3H795.344V107.4ZM798.244 107.4H801.144V110.3H798.244V107.4ZM792.444 107.4H795.344V110.3H792.444V107.4ZM792.444 110.3H795.344V113.2H792.444V110.3ZM795.344 110.3H798.244V113.2H795.344V110.3ZM789.544 110.3H792.444V113.2H789.544V110.3ZM795.344 113.2H798.244V116.1H795.344V113.2ZM786.644 113.2H789.544V116.1H786.644V113.2ZM789.544 113.2H792.444V116.1H789.544V113.2ZM792.444 113.2H795.344V116.1H792.444V113.2ZM783.744 113.2H786.644V116.1H783.744V113.2ZM795.344 116.1H798.244V119H795.344V116.1ZM792.444 116.1H795.344V119H792.444V116.1ZM786.644 116.1H789.544V119H786.644V116.1ZM789.544 116.1H792.444V119H789.544V116.1ZM780.844 116.1H783.744V119H780.844V116.1ZM783.744 116.1H786.644V119H783.744V116.1ZM777.944 116.1H780.844V119H777.944V116.1ZM775.044 116.1H777.944V119H775.044V116.1ZM772.144 116.1H775.044V119H772.144V116.1ZM854.16 116.1H857.06V119H854.16V116.1ZM851.26 116.1H848.36V113.2H851.26V116.1ZM845.46 113.2H848.36V116.1H845.46V113.2ZM854.16 116.1H851.26V113.2H854.16V116.1ZM845.46 110.3H848.36V113.2H845.46V110.3ZM851.26 113.2H848.36V110.3H851.26V113.2ZM845.46 107.4H848.36V110.3H845.46V107.4ZM851.26 110.3H848.36V107.4H851.26V110.3ZM857.06 116.1H854.16V113.2H857.06V116.1ZM859.96 116.1H857.06V113.2H859.96V116.1ZM862.86 116.1H859.96V113.2H862.86V116.1ZM865.76 116.1H862.86V113.2H865.76V116.1ZM854.16 113.2H851.26V110.3H854.16V113.2ZM845.46 104.5H848.36V107.4H845.46V104.5ZM845.46 101.6H848.36V104.5H845.46V101.6ZM845.46 95.8H848.36V98.7H845.46V95.8ZM845.46 98.7H848.36V101.6H845.46V98.7ZM859.96 14.6H862.86V17.5H859.96V14.6ZM862.86 14.6H865.76V17.5H862.86V14.6ZM865.76 14.6H868.66V17.5H865.76V14.6ZM874.46 20.4H871.56V17.5H874.46V20.4ZM862.86 20.4H859.96V17.5H862.86V20.4ZM865.76 20.4H862.86V17.5H865.76V20.4ZM868.66 20.4H865.76V17.5H868.66V20.4ZM871.56 20.4H868.66V17.5H871.56V20.4ZM859.96 20.4H857.06V17.5H859.96V20.4ZM857.06 20.4H854.16V17.5H857.06V20.4ZM854.16 20.4H851.26V17.5H854.16V20.4ZM851.26 20.4H848.36V17.5H851.26V20.4ZM868.66 14.6H871.56V17.5H868.66V14.6ZM871.56 14.6H874.46V17.5H871.56V14.6ZM874.46 14.6H877.36V17.5H874.46V14.6ZM877.36 14.6H880.26V17.5H877.36V14.6ZM880.26 14.6H883.16V17.5H880.26V14.6ZM880.26 20.4H877.36V17.5H880.26V20.4ZM883.16 20.4H880.26V17.5H883.16V20.4ZM883.16 23.3H880.26V20.4H883.16V23.3ZM886.06 23.3H883.16V20.4H886.06V23.3ZM888.96 23.3H886.06V20.4H888.96V23.3ZM891.86 23.3H888.96V20.4H891.86V23.3ZM886.06 26.2H883.16V23.3H886.06V26.2ZM888.96 26.2H886.06V23.3H888.96V26.2ZM891.86 26.2H888.96V23.3H891.86V26.2ZM894.76 26.2H891.86V23.3H894.76V26.2ZM888.96 29.1H886.06V26.2H888.96V29.1ZM891.86 29.1H888.96V26.2H891.86V29.1ZM894.76 29.1H891.86V26.2H894.76V29.1ZM897.66 29.1H894.76V26.2H897.66V29.1ZM888.96 32H886.06V29.1H888.96V32ZM891.86 32H888.96V29.1H891.86V32ZM894.76 32H891.86V29.1H894.76V32ZM897.66 32H894.76V29.1H897.66V32ZM888.96 34.9H886.06V32H888.96V34.9ZM891.86 34.9H888.96V32H891.86V34.9ZM894.76 34.9H891.86V32H894.76V34.9ZM897.66 34.9H894.76V32H897.66V34.9ZM891.86 37.8H888.96V34.9H891.86V37.8ZM851.26 23.3H848.36V20.4H851.26V23.3ZM851.26 26.2H848.36V23.3H851.26V26.2ZM854.16 23.3H851.26V20.4H854.16V23.3ZM857.06 23.3H854.16V20.4H857.06V23.3ZM854.16 26.2H851.26V23.3H854.16V26.2ZM851.26 29.1H848.36V26.2H851.26V29.1ZM851.26 32H848.36V29.1H851.26V32ZM851.26 34.9H848.36V32H851.26V34.9ZM851.26 37.8H848.36V34.9H851.26V37.8ZM851.26 40.7H848.36V37.8H851.26V40.7ZM894.76 37.8H891.86V34.9H894.76V37.8ZM897.66 37.8H894.76V34.9H897.66V37.8ZM891.86 40.7H888.96V37.8H891.86V40.7ZM894.76 40.7H891.86V37.8H894.76V40.7ZM897.66 40.7H894.76V37.8H897.66V40.7ZM900.56 34.9H897.66V32H900.56V34.9ZM900.56 37.8H897.66V34.9H900.56V37.8ZM900.56 40.7H897.66V37.8H900.56V40.7ZM897.66 43.6H894.76V40.7H897.66V43.6ZM891.86 49.4H888.96V46.5H891.86V49.4ZM894.76 49.4H891.86V46.5H894.76V49.4ZM897.66 46.5H894.76V43.6H897.66V46.5ZM888.96 49.4H886.06V46.5H888.96V49.4ZM888.96 52.3H886.06V49.4H888.96V52.3ZM891.86 52.3H888.96V49.4H891.86V52.3ZM894.76 52.3H891.86V49.4H894.76V52.3ZM894.76 43.6H891.86V40.7H894.76V43.6ZM891.86 43.6H888.96V40.7H891.86V43.6ZM891.86 55.2H888.96V52.3H891.86V55.2ZM894.76 46.5H891.86V43.6H894.76V46.5ZM891.86 46.5H888.96V43.6H891.86V46.5ZM883.16 58.1H880.26V55.2H883.16V58.1ZM880.26 58.1H877.36V55.2H880.26V58.1ZM883.16 61H880.26V58.1H883.16V61ZM880.26 61H877.36V58.1H880.26V61ZM877.36 61H874.46V58.1H877.36V61ZM874.46 61H871.56V58.1H874.46V61ZM874.46 66.8H871.56V63.9H874.46V66.8ZM871.56 66.8H868.66V63.9H871.56V66.8ZM886.06 58.1H883.16V55.2H886.06V58.1ZM888.96 55.2H886.06V52.3H888.96V55.2ZM888.96 58.1H886.06V55.2H888.96V58.1ZM886.06 55.2H883.16V52.3H886.06V55.2ZM877.36 63.9H874.46V61H877.36V63.9ZM880.26 63.9H877.36V61H880.26V63.9ZM874.46 63.9H871.56V61H874.46V63.9ZM871.56 63.9H868.66V61H871.56V63.9ZM868.66 63.9H865.76V61H868.66V63.9ZM865.76 63.9H862.86V61H865.76V63.9ZM877.36 66.8H874.46V63.9H877.36V66.8ZM880.26 66.8H877.36V63.9H880.26V66.8ZM888.96 66.8H886.06V63.9H888.96V66.8ZM891.86 66.8H888.96V63.9H891.86V66.8ZM883.16 66.8H880.26V63.9H883.16V66.8ZM886.06 66.8H883.16V63.9H886.06V66.8ZM883.16 69.7H880.26V66.8H883.16V69.7ZM886.06 69.7H883.16V66.8H886.06V69.7ZM883.16 63.9H880.26V61H883.16V63.9ZM897.66 69.7H894.76V66.8H897.66V69.7ZM886.06 63.9H883.16V61H886.06V63.9ZM888.96 69.7H886.06V66.8H888.96V69.7ZM888.96 72.6H886.06V69.7H888.96V72.6ZM897.66 72.6H894.76V69.7H897.66V72.6ZM894.76 72.6H891.86V69.7H894.76V72.6ZM891.86 69.7H888.96V66.8H891.86V69.7ZM903.46 75.5H900.56V72.6H903.46V75.5ZM900.56 72.6H897.66V69.7H900.56V72.6ZM897.66 75.5H894.76V72.6H897.66V75.5ZM900.56 78.4H897.66V75.5H900.56V78.4ZM891.86 72.6H888.96V69.7H891.86V72.6ZM891.86 75.5H888.96V72.6H891.86V75.5ZM894.76 69.7H891.86V66.8H894.76V69.7ZM900.56 75.5H897.66V72.6H900.56V75.5ZM894.76 75.5H891.86V72.6H894.76V75.5ZM894.76 78.4H891.86V75.5H894.76V78.4ZM894.76 81.3H891.86V78.4H894.76V81.3ZM897.66 78.4H894.76V75.5H897.66V78.4ZM897.66 81.3H894.76V78.4H897.66V81.3ZM903.46 78.4H900.56V75.5H903.46V78.4ZM897.66 84.2H894.76V81.3H897.66V84.2ZM900.56 84.2H897.66V81.3H900.56V84.2ZM903.46 81.3H900.56V78.4H903.46V81.3ZM900.56 81.3H897.66V78.4H900.56V81.3ZM903.46 78.4H906.36V81.3H903.46V78.4ZM897.66 87.1H894.76V84.2H897.66V87.1ZM900.56 87.1H897.66V84.2H900.56V87.1ZM897.66 90H894.76V87.1H897.66V90ZM900.56 90H897.66V87.1H900.56V90ZM897.66 92.9H894.76V90H897.66V92.9ZM900.56 92.9H897.66V90H900.56V92.9ZM897.66 95.8H894.76V92.9H897.66V95.8ZM900.56 95.8H897.66V92.9H900.56V95.8ZM897.66 98.7H894.76V95.8H897.66V98.7ZM900.56 98.7H897.66V95.8H900.56V98.7ZM903.46 84.2H900.56V81.3H903.46V84.2ZM903.46 87.1H900.56V84.2H903.46V87.1ZM903.46 90H900.56V87.1H903.46V90ZM903.46 92.9H900.56V90H903.46V92.9ZM903.46 95.8H900.56V92.9H903.46V95.8ZM903.46 81.3H906.36V84.2H903.46V81.3ZM903.46 84.2H906.36V87.1H903.46V84.2ZM903.46 87.1H906.36V90H903.46V87.1ZM903.46 90H906.36V92.9H903.46V90ZM903.46 92.9H906.36V95.8H903.46V92.9ZM903.46 98.7H900.56V95.8H903.46V98.7ZM894.76 101.6H891.86V98.7H894.76V101.6ZM897.66 101.6H894.76V98.7H897.66V101.6ZM894.76 104.5H891.86V101.6H894.76V104.5ZM897.66 104.5H894.76V101.6H897.66V104.5ZM891.86 107.4H888.96V104.5H891.86V107.4ZM894.76 107.4H891.86V104.5H894.76V107.4ZM888.96 110.3H886.06V107.4H888.96V110.3ZM891.86 110.3H888.96V107.4H891.86V110.3ZM886.06 113.2H883.16V110.3H886.06V113.2ZM888.96 113.2H886.06V110.3H888.96V113.2ZM880.26 116.1H877.36V113.2H880.26V116.1ZM877.36 116.1H874.46V113.2H877.36V116.1ZM874.46 116.1H871.56V113.2H874.46V116.1ZM883.16 116.1H880.26V113.2H883.16V116.1ZM886.06 116.1H883.16V113.2H886.06V116.1ZM888.96 116.1H886.06V113.2H888.96V116.1ZM891.86 113.2H888.96V110.3H891.86V113.2ZM894.76 113.2H891.86V110.3H894.76V113.2ZM894.76 110.3H891.86V107.4H894.76V110.3ZM897.66 110.3H894.76V107.4H897.66V110.3ZM897.66 107.4H894.76V104.5H897.66V107.4ZM900.56 107.4H897.66V104.5H900.56V107.4ZM900.56 104.5H897.66V101.6H900.56V104.5ZM900.56 101.6H897.66V98.7H900.56V101.6ZM903.46 101.6H900.56V98.7H903.46V101.6ZM862.86 116.1H865.76V119H862.86V116.1ZM865.76 116.1H868.66V119H865.76V116.1ZM868.66 116.1H865.76V113.2H868.66V116.1ZM871.56 116.1H868.66V113.2H871.56V116.1ZM868.66 116.1H871.56V119H868.66V116.1ZM871.56 116.1H874.46V119H871.56V116.1ZM874.46 116.1H877.36V119H874.46V116.1ZM877.36 116.1H880.26V119H877.36V116.1ZM880.26 116.1H883.16V119H880.26V116.1ZM883.16 113.2H880.26V110.3H883.16V113.2ZM877.36 20.4H874.46V17.5H877.36V20.4ZM886.06 20.4H883.16V17.5H886.06V20.4ZM888.96 20.4H886.06V17.5H888.96V20.4ZM857.06 116.1H859.96V119H857.06V116.1ZM859.96 116.1H862.86V119H859.96V116.1ZM903.647 116.1H906.547V119H903.647V116.1ZM900.747 116.1H903.647V119H900.747V116.1ZM906.547 116.1H909.447V119H906.547V116.1ZM909.447 116.1H912.347V119H909.447V116.1ZM912.347 116.1H915.247V119H912.347V116.1ZM915.247 116.1H918.147V119H915.247V116.1ZM918.147 116.1H921.047V119H918.147V116.1ZM921.047 116.1H923.947V119H921.047V116.1ZM923.947 116.1H926.847V119H923.947V116.1ZM915.247 116.1H912.347V113.2H915.247V116.1ZM912.347 116.1H909.447V113.2H912.347V116.1ZM918.147 116.1H915.247V113.2H918.147V116.1ZM921.047 116.1H918.147V113.2H921.047V116.1ZM923.947 116.1H921.047V113.2H923.947V116.1ZM915.247 113.2H912.347V110.3H915.247V113.2ZM915.247 110.3H912.347V107.4H915.247V110.3ZM918.147 113.2H915.247V110.3H918.147V113.2ZM921.047 113.2H918.147V110.3H921.047V113.2ZM918.147 110.3H915.247V107.4H918.147V110.3ZM921.047 110.3H918.147V107.4H921.047V110.3ZM926.847 116.1H923.947V113.2H926.847V116.1ZM929.747 116.1H926.847V113.2H929.747V116.1ZM932.647 116.1H929.747V113.2H932.647V116.1ZM935.547 116.1H932.647V113.2H935.547V116.1ZM926.847 113.2H923.947V110.3H926.847V113.2ZM923.947 113.2H921.047V110.3H923.947V113.2ZM923.947 110.3H921.047V107.4H923.947V110.3ZM915.247 107.4H912.347V104.5H915.247V107.4ZM918.147 107.4H915.247V104.5H918.147V107.4ZM921.047 107.4H918.147V104.5H921.047V107.4ZM923.947 107.4H921.047V104.5H923.947V107.4ZM915.247 104.5H912.347V101.6H915.247V104.5ZM918.147 104.5H915.247V101.6H918.147V104.5ZM921.047 104.5H918.147V101.6H921.047V104.5ZM923.947 104.5H921.047V101.6H923.947V104.5ZM915.247 101.6H912.347V98.7H915.247V101.6ZM918.147 101.6H915.247V98.7H918.147V101.6ZM921.047 101.6H918.147V98.7H921.047V101.6ZM923.947 101.6H921.047V98.7H923.947V101.6ZM915.247 98.7H912.347V95.8H915.247V98.7ZM918.147 98.7H915.247V95.8H918.147V98.7ZM921.047 98.7H918.147V95.8H921.047V98.7ZM923.947 98.7H921.047V95.8H923.947V98.7ZM915.247 95.8H912.347V92.9H915.247V95.8ZM918.147 95.8H915.247V92.9H918.147V95.8ZM921.047 95.8H918.147V92.9H921.047V95.8ZM923.947 95.8H921.047V92.9H923.947V95.8ZM915.247 92.9H912.347V90H915.247V92.9ZM918.147 92.9H915.247V90H918.147V92.9ZM921.047 92.9H918.147V90H921.047V92.9ZM923.947 92.9H921.047V90H923.947V92.9ZM915.247 90H912.347V87.1H915.247V90ZM918.147 90H915.247V87.1H918.147V90ZM921.047 90H918.147V87.1H921.047V90ZM923.947 90H921.047V87.1H923.947V90ZM915.247 87.1H912.347V84.2H915.247V87.1ZM918.147 87.1H915.247V84.2H918.147V87.1ZM921.047 87.1H918.147V84.2H921.047V87.1ZM923.947 87.1H921.047V84.2H923.947V87.1ZM915.247 84.2H912.347V81.3H915.247V84.2ZM918.147 84.2H915.247V81.3H918.147V84.2ZM921.047 84.2H918.147V81.3H921.047V84.2ZM923.947 84.2H921.047V81.3H923.947V84.2ZM915.247 81.3H912.347V78.4H915.247V81.3ZM918.147 81.3H915.247V78.4H918.147V81.3ZM921.047 81.3H918.147V78.4H921.047V81.3ZM923.947 81.3H921.047V78.4H923.947V81.3ZM915.247 78.4H912.347V75.5H915.247V78.4ZM918.147 78.4H915.247V75.5H918.147V78.4ZM921.047 78.4H918.147V75.5H921.047V78.4ZM923.947 78.4H921.047V75.5H923.947V78.4ZM915.247 75.5H912.347V72.6H915.247V75.5ZM918.147 75.5H915.247V72.6H918.147V75.5ZM921.047 75.5H918.147V72.6H921.047V75.5ZM923.947 75.5H921.047V72.6H923.947V75.5ZM915.247 72.6H912.347V69.7H915.247V72.6ZM918.147 72.6H915.247V69.7H918.147V72.6ZM921.047 72.6H918.147V69.7H921.047V72.6ZM923.947 72.6H921.047V69.7H923.947V72.6ZM915.247 69.7H912.347V66.8H915.247V69.7ZM918.147 69.7H915.247V66.8H918.147V69.7ZM921.047 69.7H918.147V66.8H921.047V69.7ZM923.947 69.7H921.047V66.8H923.947V69.7ZM915.247 66.8H912.347V63.9H915.247V66.8ZM918.147 66.8H915.247V63.9H918.147V66.8ZM921.047 66.8H918.147V63.9H921.047V66.8ZM923.947 66.8H921.047V63.9H923.947V66.8ZM915.247 63.9H912.347V61H915.247V63.9ZM918.147 63.9H915.247V61H918.147V63.9ZM921.047 63.9H918.147V61H921.047V63.9ZM923.947 63.9H921.047V61H923.947V63.9ZM915.247 61H912.347V58.1H915.247V61ZM918.147 61H915.247V58.1H918.147V61ZM921.047 61H918.147V58.1H921.047V61ZM923.947 61H921.047V58.1H923.947V61ZM915.247 58.1H912.347V55.2H915.247V58.1ZM918.147 58.1H915.247V55.2H918.147V58.1ZM921.047 58.1H918.147V55.2H921.047V58.1ZM923.947 58.1H921.047V55.2H923.947V58.1ZM915.247 55.2H912.347V52.3H915.247V55.2ZM918.147 55.2H915.247V52.3H918.147V55.2ZM921.047 55.2H918.147V52.3H921.047V55.2ZM923.947 55.2H921.047V52.3H923.947V55.2ZM915.247 52.3H912.347V49.4H915.247V52.3ZM918.147 52.3H915.247V49.4H918.147V52.3ZM921.047 52.3H918.147V49.4H921.047V52.3ZM923.947 52.3H921.047V49.4H923.947V52.3ZM915.247 49.4H912.347V46.5H915.247V49.4ZM918.147 49.4H915.247V46.5H918.147V49.4ZM921.047 49.4H918.147V46.5H921.047V49.4ZM923.947 49.4H921.047V46.5H923.947V49.4ZM915.247 46.5H912.347V43.6H915.247V46.5ZM918.147 46.5H915.247V43.6H918.147V46.5ZM921.047 46.5H918.147V43.6H921.047V46.5ZM923.947 46.5H921.047V43.6H923.947V46.5ZM915.247 43.6H912.347V40.7H915.247V43.6ZM918.147 43.6H915.247V40.7H918.147V43.6ZM921.047 43.6H918.147V40.7H921.047V43.6ZM923.947 43.6H921.047V40.7H923.947V43.6ZM915.247 40.7H912.347V37.8H915.247V40.7ZM918.147 40.7H915.247V37.8H918.147V40.7ZM921.047 40.7H918.147V37.8H921.047V40.7ZM923.947 40.7H921.047V37.8H923.947V40.7ZM915.247 37.8H912.347V34.9H915.247V37.8ZM918.147 37.8H915.247V34.9H918.147V37.8ZM921.047 37.8H918.147V34.9H921.047V37.8ZM923.947 37.8H921.047V34.9H923.947V37.8ZM915.247 34.9H912.347V32H915.247V34.9ZM918.147 34.9H915.247V32H918.147V34.9ZM921.047 34.9H918.147V32H921.047V34.9ZM923.947 34.9H921.047V32H923.947V34.9ZM915.247 32H912.347V29.1H915.247V32ZM918.147 32H915.247V29.1H918.147V32ZM921.047 32H918.147V29.1H921.047V32ZM923.947 32H921.047V29.1H923.947V32ZM915.247 29.1H912.347V26.2H915.247V29.1ZM918.147 29.1H915.247V26.2H918.147V29.1ZM921.047 29.1H918.147V26.2H921.047V29.1ZM923.947 29.1H921.047V26.2H923.947V29.1ZM915.247 26.2H912.347V23.3H915.247V26.2ZM918.147 26.2H915.247V23.3H918.147V26.2ZM921.047 26.2H918.147V23.3H921.047V26.2ZM923.947 26.2H921.047V23.3H923.947V26.2ZM915.247 23.3H912.347V20.4H915.247V23.3ZM918.147 23.3H915.247V20.4H918.147V23.3ZM921.047 23.3H918.147V20.4H921.047V23.3ZM923.947 23.3H921.047V20.4H923.947V23.3ZM912.347 17.5H915.247V20.4H912.347V17.5ZM915.247 17.5H918.147V20.4H915.247V17.5ZM918.147 17.5H921.047V20.4H918.147V17.5ZM921.047 17.5H923.947V20.4H921.047V17.5ZM947.147 63.9H944.247V61H947.147V63.9ZM944.247 63.9H941.347V61H944.247V63.9ZM941.347 63.9H938.447V61H941.347V63.9ZM938.447 63.9H935.547V61H938.447V63.9ZM935.547 63.9H932.647V61H935.547V63.9ZM932.647 63.9H929.747V61H932.647V63.9ZM929.747 63.9H926.847V61H929.747V63.9ZM926.847 63.9H923.947V61H926.847V63.9ZM941.347 66.8H938.447V63.9H941.347V66.8ZM938.447 66.8H935.547V63.9H938.447V66.8ZM947.147 66.8H944.247V63.9H947.147V66.8ZM950.047 66.8H947.147V63.9H950.047V66.8ZM947.147 69.7H944.247V66.8H947.147V69.7ZM950.047 69.7H947.147V66.8H950.047V69.7ZM952.947 66.8H950.047V63.9H952.947V66.8ZM955.847 66.8H952.947V63.9H955.847V66.8ZM952.947 69.7H950.047V66.8H952.947V69.7ZM955.847 69.7H952.947V66.8H955.847V69.7ZM952.947 72.6H950.047V69.7H952.947V72.6ZM950.047 72.6H947.147V69.7H950.047V72.6ZM955.847 72.6H952.947V69.7H955.847V72.6ZM958.747 69.7H955.847V66.8H958.747V69.7ZM958.747 72.6H955.847V69.7H958.747V72.6ZM955.847 75.5H952.947V72.6H955.847V75.5ZM952.947 75.5H950.047V72.6H952.947V75.5ZM958.747 75.5H955.847V72.6H958.747V75.5ZM955.847 78.4H952.947V75.5H955.847V78.4ZM958.747 78.4H955.847V75.5H958.747V78.4ZM958.747 81.3H955.847V78.4H958.747V81.3ZM958.747 84.2H955.847V81.3H958.747V84.2ZM961.647 72.6H958.747V69.7H961.647V72.6ZM961.647 75.5H958.747V72.6H961.647V75.5ZM961.647 78.4H958.747V75.5H961.647V78.4ZM961.647 81.3H958.747V78.4H961.647V81.3ZM964.547 75.5H961.647V72.6H964.547V75.5ZM964.547 78.4H961.647V75.5H964.547V78.4ZM964.547 81.3H961.647V78.4H964.547V81.3ZM967.447 78.4H964.547V75.5H967.447V78.4ZM967.447 81.3H964.547V78.4H967.447V81.3ZM961.647 84.2H958.747V81.3H961.647V84.2ZM964.547 84.2H961.647V81.3H964.547V84.2ZM967.447 84.2H964.547V81.3H967.447V84.2ZM970.347 84.2H967.447V81.3H970.347V84.2ZM961.647 87.1H958.747V84.2H961.647V87.1ZM964.547 87.1H961.647V84.2H964.547V87.1ZM967.447 87.1H964.547V84.2H967.447V87.1ZM970.347 87.1H967.447V84.2H970.347V87.1ZM961.647 90H958.747V87.1H961.647V90ZM964.547 90H961.647V87.1H964.547V90ZM967.447 90H964.547V87.1H967.447V90ZM970.347 90H967.447V87.1H970.347V90ZM961.647 92.9H958.747V90H961.647V92.9ZM964.547 92.9H961.647V90H964.547V92.9ZM967.447 92.9H964.547V90H967.447V92.9ZM970.347 92.9H967.447V90H970.347V92.9ZM961.647 95.8H958.747V92.9H961.647V95.8ZM964.547 95.8H961.647V92.9H964.547V95.8ZM964.547 92.9V95.8V92.9ZM970.347 95.8H967.447V92.9H970.347V95.8ZM967.447 95.8H964.547V92.9H967.447V95.8ZM961.647 98.7H958.747V95.8H961.647V98.7ZM964.547 98.7H961.647V95.8H964.547V98.7ZM967.447 98.7H964.547V95.8H967.447V98.7ZM970.347 98.7H967.447V95.8H970.347V98.7ZM961.647 101.6H958.747V98.7H961.647V101.6ZM964.547 101.6H961.647V98.7H964.547V101.6ZM967.447 101.6H964.547V98.7H967.447V101.6ZM961.647 104.5H958.747V101.6H961.647V104.5ZM964.547 104.5H961.647V101.6H964.547V104.5ZM967.447 104.5H964.547V101.6H967.447V104.5ZM961.647 107.4H958.747V104.5H961.647V107.4ZM958.747 107.4H955.847V104.5H958.747V107.4ZM964.547 107.4H961.647V104.5H964.547V107.4ZM958.747 110.3H955.847V107.4H958.747V110.3ZM955.847 110.3H952.947V107.4H955.847V110.3ZM961.647 110.3H958.747V107.4H961.647V110.3ZM955.847 113.2H952.947V110.3H955.847V113.2ZM952.947 113.2H950.047V110.3H952.947V113.2ZM958.747 113.2H955.847V110.3H958.747V113.2ZM950.047 116.1H947.147V113.2H950.047V116.1ZM947.147 116.1H944.247V113.2H947.147V116.1ZM944.247 116.1H941.347V113.2H944.247V116.1ZM952.947 116.1H950.047V113.2H952.947V116.1ZM955.847 116.1H952.947V113.2H955.847V116.1ZM932.647 116.1H935.547V119H932.647V116.1ZM935.547 116.1H938.447V119H935.547V116.1ZM938.447 116.1H935.547V113.2H938.447V116.1ZM941.347 116.1H938.447V113.2H941.347V116.1ZM938.447 116.1H941.347V119H938.447V116.1ZM941.347 116.1H944.247V119H941.347V116.1ZM944.247 116.1H947.147V119H944.247V116.1ZM944.247 66.8H941.347V63.9H944.247V66.8ZM926.847 116.1H929.747V119H926.847V116.1ZM929.747 116.1H932.647V119H929.747V116.1ZM926.847 23.3H923.947V20.4H926.847V23.3ZM923.947 17.5H926.847V20.4H923.947V17.5ZM926.847 17.5H929.747V20.4H926.847V17.5ZM929.747 17.5H932.647V20.4H929.747V17.5ZM932.647 17.5H935.547V20.4H932.647V17.5ZM906.547 17.5H909.447V20.4H906.547V17.5ZM909.447 17.5H912.347V20.4H909.447V17.5ZM900.747 17.5H903.647V20.4H900.747V17.5ZM903.647 17.5H906.547V20.4H903.647V17.5ZM912.347 23.3H909.447V20.4H912.347V23.3ZM981.947 116.1H984.847V119H981.947V116.1ZM979.047 116.1H981.947V119H979.047V116.1ZM984.847 116.1H987.747V119H984.847V116.1ZM987.747 116.1H990.647V119H987.747V116.1ZM990.647 116.1H993.547V119H990.647V116.1ZM993.547 116.1H996.447V119H993.547V116.1ZM996.447 116.1H999.347V119H996.447V116.1ZM999.347 116.1H1002.25V119H999.347V116.1ZM1002.25 116.1H1005.15V119H1002.25V116.1ZM993.547 116.1H990.647V113.2H993.547V116.1ZM990.647 116.1H987.747V113.2H990.647V116.1ZM996.447 116.1H993.547V113.2H996.447V116.1ZM999.347 116.1H996.447V113.2H999.347V116.1ZM1002.25 116.1H999.347V113.2H1002.25V116.1ZM993.547 113.2H990.647V110.3H993.547V113.2ZM993.547 110.3H990.647V107.4H993.547V110.3ZM996.447 113.2H993.547V110.3H996.447V113.2ZM999.347 113.2H996.447V110.3H999.347V113.2ZM996.447 110.3H993.547V107.4H996.447V110.3ZM999.347 110.3H996.447V107.4H999.347V110.3ZM1005.15 116.1H1002.25V113.2H1005.15V116.1ZM1002.25 113.2H999.347V110.3H1002.25V113.2ZM1002.25 110.3H999.347V107.4H1002.25V110.3ZM993.547 107.4H990.647V104.5H993.547V107.4ZM996.447 107.4H993.547V104.5H996.447V107.4ZM999.347 107.4H996.447V104.5H999.347V107.4ZM1002.25 107.4H999.347V104.5H1002.25V107.4ZM993.547 104.5H990.647V101.6H993.547V104.5ZM996.447 104.5H993.547V101.6H996.447V104.5ZM999.347 104.5H996.447V101.6H999.347V104.5ZM1002.25 104.5H999.347V101.6H1002.25V104.5ZM993.547 101.6H990.647V98.7H993.547V101.6ZM996.447 101.6H993.547V98.7H996.447V101.6ZM999.347 101.6H996.447V98.7H999.347V101.6ZM1002.25 101.6H999.347V98.7H1002.25V101.6ZM993.547 98.7H990.647V95.8H993.547V98.7ZM996.447 98.7H993.547V95.8H996.447V98.7ZM999.347 98.7H996.447V95.8H999.347V98.7ZM1002.25 98.7H999.347V95.8H1002.25V98.7ZM993.547 95.8H990.647V92.9H993.547V95.8ZM996.447 95.8H993.547V92.9H996.447V95.8ZM999.347 95.8H996.447V92.9H999.347V95.8ZM1002.25 95.8H999.347V92.9H1002.25V95.8ZM993.547 92.9H990.647V90H993.547V92.9ZM996.447 92.9H993.547V90H996.447V92.9ZM999.347 92.9H996.447V90H999.347V92.9ZM1002.25 92.9H999.347V90H1002.25V92.9ZM993.547 90H990.647V87.1H993.547V90ZM996.447 90H993.547V87.1H996.447V90ZM999.347 90H996.447V87.1H999.347V90ZM1002.25 90H999.347V87.1H1002.25V90ZM993.547 87.1H990.647V84.2H993.547V87.1ZM996.447 87.1H993.547V84.2H996.447V87.1ZM999.347 87.1H996.447V84.2H999.347V87.1ZM1002.25 87.1H999.347V84.2H1002.25V87.1ZM993.547 84.2H990.647V81.3H993.547V84.2ZM996.447 84.2H993.547V81.3H996.447V84.2ZM999.347 84.2H996.447V81.3H999.347V84.2ZM1002.25 84.2H999.347V81.3H1002.25V84.2ZM993.547 81.3H990.647V78.4H993.547V81.3ZM996.447 81.3H993.547V78.4H996.447V81.3ZM999.347 81.3H996.447V78.4H999.347V81.3ZM1002.25 81.3H999.347V78.4H1002.25V81.3ZM993.547 78.4H990.647V75.5H993.547V78.4ZM996.447 78.4H993.547V75.5H996.447V78.4ZM999.347 78.4H996.447V75.5H999.347V78.4ZM1002.25 78.4H999.347V75.5H1002.25V78.4ZM993.547 75.5H990.647V72.6H993.547V75.5ZM996.447 75.5H993.547V72.6H996.447V75.5ZM999.347 75.5H996.447V72.6H999.347V75.5ZM1002.25 75.5H999.347V72.6H1002.25V75.5ZM993.547 72.6H990.647V69.7H993.547V72.6ZM996.447 72.6H993.547V69.7H996.447V72.6ZM999.347 72.6H996.447V69.7H999.347V72.6ZM1002.25 72.6H999.347V69.7H1002.25V72.6ZM993.547 69.7H990.647V66.8H993.547V69.7ZM996.447 69.7H993.547V66.8H996.447V69.7ZM999.347 69.7H996.447V66.8H999.347V69.7ZM1002.25 69.7H999.347V66.8H1002.25V69.7ZM993.547 66.8H990.647V63.9H993.547V66.8ZM996.447 66.8H993.547V63.9H996.447V66.8ZM999.347 66.8H996.447V63.9H999.347V66.8ZM1002.25 66.8H999.347V63.9H1002.25V66.8ZM993.547 63.9H990.647V61H993.547V63.9ZM996.447 63.9H993.547V61H996.447V63.9ZM999.347 63.9H996.447V61H999.347V63.9ZM1002.25 63.9H999.347V61H1002.25V63.9ZM993.547 61H990.647V58.1H993.547V61ZM996.447 61H993.547V58.1H996.447V61ZM999.347 61H996.447V58.1H999.347V61ZM1002.25 61H999.347V58.1H1002.25V61ZM993.547 58.1H990.647V55.2H993.547V58.1ZM996.447 58.1H993.547V55.2H996.447V58.1ZM999.347 58.1H996.447V55.2H999.347V58.1ZM1002.25 58.1H999.347V55.2H1002.25V58.1ZM993.547 55.2H990.647V52.3H993.547V55.2ZM996.447 55.2H993.547V52.3H996.447V55.2ZM999.347 55.2H996.447V52.3H999.347V55.2ZM1002.25 55.2H999.347V52.3H1002.25V55.2ZM993.547 52.3H990.647V49.4H993.547V52.3ZM996.447 52.3H993.547V49.4H996.447V52.3ZM999.347 52.3H996.447V49.4H999.347V52.3ZM1002.25 52.3H999.347V49.4H1002.25V52.3ZM993.547 49.4H990.647V46.5H993.547V49.4ZM996.447 49.4H993.547V46.5H996.447V49.4ZM999.347 49.4H996.447V46.5H999.347V49.4ZM1002.25 49.4H999.347V46.5H1002.25V49.4ZM993.547 46.5H990.647V43.6H993.547V46.5ZM996.447 46.5H993.547V43.6H996.447V46.5ZM999.347 46.5H996.447V43.6H999.347V46.5ZM1002.25 46.5H999.347V43.6H1002.25V46.5ZM993.547 43.6H990.647V40.7H993.547V43.6ZM996.447 43.6H993.547V40.7H996.447V43.6ZM999.347 43.6H996.447V40.7H999.347V43.6ZM1002.25 43.6H999.347V40.7H1002.25V43.6ZM993.547 40.7H990.647V37.8H993.547V40.7ZM996.447 40.7H993.547V37.8H996.447V40.7ZM999.347 40.7H996.447V37.8H999.347V40.7ZM1002.25 40.7H999.347V37.8H1002.25V40.7ZM993.547 37.8H990.647V34.9H993.547V37.8ZM996.447 37.8H993.547V34.9H996.447V37.8ZM999.347 37.8H996.447V34.9H999.347V37.8ZM1002.25 37.8H999.347V34.9H1002.25V37.8ZM993.547 34.9H990.647V32H993.547V34.9ZM996.447 34.9H993.547V32H996.447V34.9ZM999.347 34.9H996.447V32H999.347V34.9ZM1002.25 34.9H999.347V32H1002.25V34.9ZM993.547 32H990.647V29.1H993.547V32ZM996.447 32H993.547V29.1H996.447V32ZM999.347 32H996.447V29.1H999.347V32ZM1002.25 32H999.347V29.1H1002.25V32ZM993.547 29.1H990.647V26.2H993.547V29.1ZM996.447 29.1H993.547V26.2H996.447V29.1ZM999.347 29.1H996.447V26.2H999.347V29.1ZM1002.25 29.1H999.347V26.2H1002.25V29.1ZM993.547 26.2H990.647V23.3H993.547V26.2ZM996.447 26.2H993.547V23.3H996.447V26.2ZM999.347 26.2H996.447V23.3H999.347V26.2ZM1002.25 26.2H999.347V23.3H1002.25V26.2ZM993.547 23.3H990.647V20.4H993.547V23.3ZM990.647 23.3H987.747V20.4H990.647V23.3ZM996.447 23.3H993.547V20.4H996.447V23.3ZM999.347 23.3H996.447V20.4H999.347V23.3ZM1002.25 23.3H999.347V20.4H1002.25V23.3ZM1005.15 23.3H1002.25V20.4H1005.15V23.3ZM990.647 17.5H993.547V20.4H990.647V17.5ZM993.547 17.5H996.447V20.4H993.547V17.5ZM996.447 17.5H999.347V20.4H996.447V17.5ZM999.347 17.5H1002.25V20.4H999.347V17.5ZM1002.25 17.5H1005.15V20.4H1002.25V17.5ZM1005.15 17.5H1008.05V20.4H1005.15V17.5ZM1008.05 17.5H1010.95V20.4H1008.05V17.5ZM1010.95 17.5H1013.85V20.4H1010.95V17.5ZM1010.95 116.1H1013.85V119H1010.95V116.1ZM979.047 17.5H981.947V20.4H979.047V17.5ZM981.947 17.5H984.847V20.4H981.947V17.5ZM984.847 17.5H987.747V20.4H984.847V17.5ZM987.747 17.5H990.647V20.4H987.747V17.5ZM1005.15 116.1H1008.05V119H1005.15V116.1ZM1008.05 116.1H1010.95V119H1008.05V116.1ZM1068.88 104.5H1065.98V101.6H1068.88V104.5ZM1010.88 116.1H1013.78V119H1010.88V116.1ZM1007.98 116.1H1010.88V119H1007.98V116.1ZM1013.78 116.1H1016.68V119H1013.78V116.1ZM1016.68 116.1H1019.58V119H1016.68V116.1ZM1019.58 116.1H1022.48V119H1019.58V116.1ZM1022.48 116.1H1025.38V119H1022.48V116.1ZM1025.38 116.1H1028.28V119H1025.38V116.1ZM1028.28 116.1H1031.18V119H1028.28V116.1ZM1031.18 116.1H1034.08V119H1031.18V116.1ZM1022.48 116.1H1019.58V113.2H1022.48V116.1ZM1019.58 116.1H1016.68V113.2H1019.58V116.1ZM1025.38 116.1H1022.48V113.2H1025.38V116.1ZM1028.28 116.1H1025.38V113.2H1028.28V116.1ZM1031.18 116.1H1028.28V113.2H1031.18V116.1ZM1022.48 113.2H1019.58V110.3H1022.48V113.2ZM1022.48 110.3H1019.58V107.4H1022.48V110.3ZM1025.38 113.2H1022.48V110.3H1025.38V113.2ZM1028.28 113.2H1025.38V110.3H1028.28V113.2ZM1025.38 110.3H1022.48V107.4H1025.38V110.3ZM1028.28 110.3H1025.38V107.4H1028.28V110.3ZM1034.08 116.1H1031.18V113.2H1034.08V116.1ZM1031.18 113.2H1028.28V110.3H1031.18V113.2ZM1031.18 110.3H1028.28V107.4H1031.18V110.3ZM1022.48 107.4H1019.58V104.5H1022.48V107.4ZM1025.38 107.4H1022.48V104.5H1025.38V107.4ZM1028.28 107.4H1025.38V104.5H1028.28V107.4ZM1031.18 107.4H1028.28V104.5H1031.18V107.4ZM1022.48 104.5H1019.58V101.6H1022.48V104.5ZM1025.38 104.5H1022.48V101.6H1025.38V104.5ZM1028.28 104.5H1025.38V101.6H1028.28V104.5ZM1031.18 104.5H1028.28V101.6H1031.18V104.5ZM1022.48 101.6H1019.58V98.7H1022.48V101.6ZM1025.38 101.6H1022.48V98.7H1025.38V101.6ZM1028.28 101.6H1025.38V98.7H1028.28V101.6ZM1031.18 101.6H1028.28V98.7H1031.18V101.6ZM1022.48 98.7H1019.58V95.8H1022.48V98.7ZM1025.38 98.7H1022.48V95.8H1025.38V98.7ZM1028.28 98.7H1025.38V95.8H1028.28V98.7ZM1031.18 98.7H1028.28V95.8H1031.18V98.7ZM1022.48 95.8H1019.58V92.9H1022.48V95.8ZM1025.38 95.8H1022.48V92.9H1025.38V95.8ZM1028.28 95.8H1025.38V92.9H1028.28V95.8ZM1031.18 95.8H1028.28V92.9H1031.18V95.8ZM1022.48 92.9H1019.58V90H1022.48V92.9ZM1025.38 92.9H1022.48V90H1025.38V92.9ZM1028.28 92.9H1025.38V90H1028.28V92.9ZM1031.18 92.9H1028.28V90H1031.18V92.9ZM1022.48 90H1019.58V87.1H1022.48V90ZM1025.38 90H1022.48V87.1H1025.38V90ZM1028.28 90H1025.38V87.1H1028.28V90ZM1031.18 90H1028.28V87.1H1031.18V90ZM1022.48 87.1H1019.58V84.2H1022.48V87.1ZM1025.38 87.1H1022.48V84.2H1025.38V87.1ZM1028.28 87.1H1025.38V84.2H1028.28V87.1ZM1031.18 87.1H1028.28V84.2H1031.18V87.1ZM1022.48 84.2H1019.58V81.3H1022.48V84.2ZM1025.38 84.2H1022.48V81.3H1025.38V84.2ZM1028.28 84.2H1025.38V81.3H1028.28V84.2ZM1031.18 84.2H1028.28V81.3H1031.18V84.2ZM1022.48 81.3H1019.58V78.4H1022.48V81.3ZM1025.38 81.3H1022.48V78.4H1025.38V81.3ZM1028.28 81.3H1025.38V78.4H1028.28V81.3ZM1031.18 81.3H1028.28V78.4H1031.18V81.3ZM1022.48 78.4H1019.58V75.5H1022.48V78.4ZM1025.38 78.4H1022.48V75.5H1025.38V78.4ZM1028.28 78.4H1025.38V75.5H1028.28V78.4ZM1031.18 78.4H1028.28V75.5H1031.18V78.4ZM1022.48 75.5H1019.58V72.6H1022.48V75.5ZM1025.38 75.5H1022.48V72.6H1025.38V75.5ZM1028.28 75.5H1025.38V72.6H1028.28V75.5ZM1031.18 75.5H1028.28V72.6H1031.18V75.5ZM1022.48 72.6H1019.58V69.7H1022.48V72.6ZM1025.38 72.6H1022.48V69.7H1025.38V72.6ZM1028.28 72.6H1025.38V69.7H1028.28V72.6ZM1031.18 72.6H1028.28V69.7H1031.18V72.6ZM1022.48 69.7H1019.58V66.8H1022.48V69.7ZM1025.38 69.7H1022.48V66.8H1025.38V69.7ZM1028.28 69.7H1025.38V66.8H1028.28V69.7ZM1031.18 69.7H1028.28V66.8H1031.18V69.7ZM1022.48 66.8H1019.58V63.9H1022.48V66.8ZM1025.38 66.8H1022.48V63.9H1025.38V66.8ZM1028.28 66.8H1025.38V63.9H1028.28V66.8ZM1031.18 66.8H1028.28V63.9H1031.18V66.8ZM1034.08 66.8H1031.18V63.9H1034.08V66.8ZM1039.88 66.8H1036.98V63.9H1039.88V66.8ZM1036.98 63.9H1034.08V61H1036.98V63.9ZM1039.88 63.9H1036.98V61H1039.88V63.9ZM1036.98 63.9H1034.08V61H1036.98V63.9ZM1039.88 63.9H1036.98V61H1039.88V63.9ZM1042.78 63.9H1039.88V61H1042.78V63.9ZM1045.68 61H1042.78V58.1H1045.68V61ZM1048.58 58.1H1045.68V55.2H1048.58V58.1ZM1051.48 55.2H1048.58V52.3H1051.48V55.2ZM1054.38 52.3H1051.48V49.4H1054.38V52.3ZM1039.88 61H1036.98V58.1H1039.88V61ZM1042.78 61H1039.88V58.1H1042.78V61ZM1042.78 58.1H1039.88V55.2H1042.78V58.1ZM1045.68 58.1H1042.78V55.2H1045.68V58.1ZM1045.68 55.2H1042.78V52.3H1045.68V55.2ZM1048.58 55.2H1045.68V52.3H1048.58V55.2ZM1048.58 52.3H1045.68V49.4H1048.58V52.3ZM1051.48 52.3H1048.58V49.4H1051.48V52.3ZM1051.48 49.4H1048.58V46.5H1051.48V49.4ZM1054.38 49.4H1051.48V46.5H1054.38V49.4ZM1054.38 46.5H1051.48V43.6H1054.38V46.5ZM1057.28 46.5H1054.38V43.6H1057.28V46.5ZM1057.28 43.6H1054.38V40.7H1057.28V43.6ZM1054.38 43.6H1051.48V40.7H1054.38V43.6ZM1057.28 40.7H1054.38V37.8H1057.28V40.7ZM1060.18 37.8H1057.28V34.9H1060.18V37.8ZM1063.08 34.9H1060.18V32H1063.08V34.9ZM1065.98 32H1063.08V29.1H1065.98V32ZM1068.88 29.1H1065.98V26.2H1068.88V29.1ZM1071.78 26.2H1068.88V23.3H1071.78V26.2ZM1074.68 23.3H1071.78V20.4H1074.68V23.3ZM1074.68 17.5H1077.58V20.4H1074.68V17.5ZM1060.18 43.6H1057.28V40.7H1060.18V43.6ZM1060.18 40.7H1057.28V37.8H1060.18V40.7ZM1063.08 40.7H1060.18V37.8H1063.08V40.7ZM1063.08 37.8H1060.18V34.9H1063.08V37.8ZM1065.98 37.8H1063.08V34.9H1065.98V37.8ZM1065.98 34.9H1063.08V32H1065.98V34.9ZM1068.88 34.9H1065.98V32H1068.88V34.9ZM1068.88 32H1065.98V29.1H1068.88V32ZM1071.78 32H1068.88V29.1H1071.78V32ZM1071.78 29.1H1068.88V26.2H1071.78V29.1ZM1074.68 29.1H1071.78V26.2H1074.68V29.1ZM1074.68 26.2H1071.78V23.3H1074.68V26.2ZM1077.58 26.2H1074.68V23.3H1077.58V26.2ZM1077.58 23.3H1074.68V20.4H1077.58V23.3ZM1080.48 23.3H1077.58V20.4H1080.48V23.3ZM1083.38 23.3H1080.48V20.4H1083.38V23.3ZM1077.58 17.5H1080.48V20.4H1077.58V17.5ZM1080.48 17.5H1083.38V20.4H1080.48V17.5ZM1083.38 17.5H1086.28V20.4H1083.38V17.5ZM1086.28 17.5H1089.18V20.4H1086.28V17.5ZM1092.08 17.5H1094.98V20.4H1092.08V17.5ZM1089.18 17.5H1092.08V20.4H1089.18V17.5ZM1065.98 17.5H1068.88V20.4H1065.98V17.5ZM1063.08 17.5H1065.98V20.4H1063.08V17.5ZM1068.88 17.5H1071.78V20.4H1068.88V17.5ZM1071.78 23.3H1068.88V20.4H1071.78V23.3ZM1071.78 17.5H1074.68V20.4H1071.78V17.5ZM1034.08 69.7H1031.18V66.8H1034.08V69.7ZM1036.98 66.8H1034.08V63.9H1036.98V66.8ZM1036.98 69.7H1034.08V66.8H1036.98V69.7ZM1039.88 69.7H1036.98V66.8H1039.88V69.7ZM1042.78 69.7H1039.88V66.8H1042.78V69.7ZM1042.78 66.8H1039.88V63.9H1042.78V66.8ZM1045.68 69.7H1042.78V66.8H1045.68V69.7ZM1036.98 72.6H1034.08V69.7H1036.98V72.6ZM1039.88 72.6H1036.98V69.7H1039.88V72.6ZM1042.78 72.6H1039.88V69.7H1042.78V72.6ZM1045.68 72.6H1042.78V69.7H1045.68V72.6ZM1048.58 72.6H1045.68V69.7H1048.58V72.6ZM1039.88 75.5H1036.98V72.6H1039.88V75.5ZM1042.78 75.5H1039.88V72.6H1042.78V75.5ZM1045.68 75.5H1042.78V72.6H1045.68V75.5ZM1048.58 75.5H1045.68V72.6H1048.58V75.5ZM1051.48 75.5H1048.58V72.6H1051.48V75.5ZM1042.78 78.4H1039.88V75.5H1042.78V78.4ZM1045.68 78.4H1042.78V75.5H1045.68V78.4ZM1048.58 78.4H1045.68V75.5H1048.58V78.4ZM1051.48 78.4H1048.58V75.5H1051.48V78.4ZM1054.38 78.4H1051.48V75.5H1054.38V78.4ZM1045.68 81.3H1042.78V78.4H1045.68V81.3ZM1048.58 81.3H1045.68V78.4H1048.58V81.3ZM1051.48 81.3H1048.58V78.4H1051.48V81.3ZM1054.38 81.3H1051.48V78.4H1054.38V81.3ZM1057.28 81.3H1054.38V78.4H1057.28V81.3ZM1048.58 84.2H1045.68V81.3H1048.58V84.2ZM1051.48 84.2H1048.58V81.3H1051.48V84.2ZM1054.38 84.2H1051.48V81.3H1054.38V84.2ZM1057.28 84.2H1054.38V81.3H1057.28V84.2ZM1060.18 84.2H1057.28V81.3H1060.18V84.2ZM1051.48 87.1H1048.58V84.2H1051.48V87.1ZM1054.38 87.1H1051.48V84.2H1054.38V87.1ZM1057.28 87.1H1054.38V84.2H1057.28V87.1ZM1060.18 87.1H1057.28V84.2H1060.18V87.1ZM1063.08 87.1H1060.18V84.2H1063.08V87.1ZM1054.38 90H1051.48V87.1H1054.38V90ZM1057.28 90H1054.38V87.1H1057.28V90ZM1060.18 90H1057.28V87.1H1060.18V90ZM1063.08 90H1060.18V87.1H1063.08V90ZM1065.98 90H1063.08V87.1H1065.98V90ZM1057.28 92.9H1054.38V90H1057.28V92.9ZM1060.18 92.9H1057.28V90H1060.18V92.9ZM1063.08 92.9H1060.18V90H1063.08V92.9ZM1065.98 92.9H1063.08V90H1065.98V92.9ZM1068.88 92.9H1065.98V90H1068.88V92.9ZM1060.18 95.8H1057.28V92.9H1060.18V95.8ZM1063.08 95.8H1060.18V92.9H1063.08V95.8ZM1065.98 95.8H1063.08V92.9H1065.98V95.8ZM1068.88 95.8H1065.98V92.9H1068.88V95.8ZM1071.78 95.8H1068.88V92.9H1071.78V95.8ZM1063.08 98.7H1060.18V95.8H1063.08V98.7ZM1060.18 98.7H1057.28V95.8H1060.18V98.7ZM1065.98 98.7H1063.08V95.8H1065.98V98.7ZM1068.88 98.7H1065.98V95.8H1068.88V98.7ZM1071.78 98.7H1068.88V95.8H1071.78V98.7ZM1074.68 98.7H1071.78V95.8H1074.68V98.7ZM1065.98 101.6H1063.08V98.7H1065.98V101.6ZM1063.08 101.6H1060.18V98.7H1063.08V101.6ZM1068.88 101.6H1065.98V98.7H1068.88V101.6ZM1071.78 101.6H1068.88V98.7H1071.78V101.6ZM1074.68 101.6H1071.78V98.7H1074.68V101.6ZM1077.58 101.6H1074.68V98.7H1077.58V101.6ZM1068.88 104.5H1065.98V101.6H1068.88V104.5ZM1065.98 104.5H1063.08V101.6H1065.98V104.5ZM1071.78 104.5H1068.88V101.6H1071.78V104.5ZM1074.68 104.5H1071.78V101.6H1074.68V104.5ZM1077.58 104.5H1074.68V101.6H1077.58V104.5ZM1080.48 104.5H1077.58V101.6H1080.48V104.5ZM1071.78 107.4H1068.88V104.5H1071.78V107.4ZM1068.88 107.4H1065.98V104.5H1068.88V107.4ZM1074.68 107.4H1071.78V104.5H1074.68V107.4ZM1077.58 107.4H1074.68V104.5H1077.58V107.4ZM1080.48 107.4H1077.58V104.5H1080.48V107.4ZM1083.38 107.4H1080.48V104.5H1083.38V107.4ZM1074.68 110.3H1071.78V107.4H1074.68V110.3ZM1071.78 110.3H1068.88V107.4H1071.78V110.3ZM1077.58 110.3H1074.68V107.4H1077.58V110.3ZM1080.48 110.3H1077.58V107.4H1080.48V110.3ZM1083.38 110.3H1080.48V107.4H1083.38V110.3ZM1086.28 110.3H1083.38V107.4H1086.28V110.3ZM1077.58 113.2H1074.68V110.3H1077.58V113.2ZM1080.48 113.2H1077.58V110.3H1080.48V113.2ZM1083.38 113.2H1080.48V110.3H1083.38V113.2ZM1086.28 113.2H1083.38V110.3H1086.28V113.2ZM1089.18 113.2H1086.28V110.3H1089.18V113.2ZM1080.48 116.1H1077.58V113.2H1080.48V116.1ZM1083.38 116.1H1080.48V113.2H1083.38V116.1ZM1086.28 116.1H1083.38V113.2H1086.28V116.1ZM1089.18 116.1H1086.28V113.2H1089.18V116.1ZM1092.08 116.1H1089.18V113.2H1092.08V116.1ZM1083.38 116.1H1086.28V119H1083.38V116.1ZM1086.28 116.1H1089.18V119H1086.28V116.1ZM1089.18 116.1H1092.08V119H1089.18V116.1ZM1094.98 116.1H1092.08V113.2H1094.98V116.1ZM1092.08 116.1H1094.98V119H1092.08V116.1ZM1094.98 116.1H1097.88V119H1094.98V116.1ZM1097.88 116.1H1100.78V119H1097.88V116.1ZM1100.78 116.1H1103.68V119H1100.78V116.1ZM1103.68 116.1H1106.58V119H1103.68V116.1ZM1022.48 63.9H1019.58V61H1022.48V63.9ZM1025.38 63.9H1022.48V61H1025.38V63.9ZM1028.28 63.9H1025.38V61H1028.28V63.9ZM1031.18 63.9H1028.28V61H1031.18V63.9ZM1022.48 61H1019.58V58.1H1022.48V61ZM1025.38 61H1022.48V58.1H1025.38V61ZM1028.28 61H1025.38V58.1H1028.28V61ZM1031.18 61H1028.28V58.1H1031.18V61ZM1022.48 58.1H1019.58V55.2H1022.48V58.1ZM1025.38 58.1H1022.48V55.2H1025.38V58.1ZM1028.28 58.1H1025.38V55.2H1028.28V58.1ZM1031.18 58.1H1028.28V55.2H1031.18V58.1ZM1022.48 55.2H1019.58V52.3H1022.48V55.2ZM1025.38 55.2H1022.48V52.3H1025.38V55.2ZM1028.28 55.2H1025.38V52.3H1028.28V55.2ZM1031.18 55.2H1028.28V52.3H1031.18V55.2ZM1022.48 52.3H1019.58V49.4H1022.48V52.3ZM1025.38 52.3H1022.48V49.4H1025.38V52.3ZM1028.28 52.3H1025.38V49.4H1028.28V52.3ZM1031.18 52.3H1028.28V49.4H1031.18V52.3ZM1022.48 49.4H1019.58V46.5H1022.48V49.4ZM1025.38 49.4H1022.48V46.5H1025.38V49.4ZM1028.28 49.4H1025.38V46.5H1028.28V49.4ZM1031.18 49.4H1028.28V46.5H1031.18V49.4ZM1022.48 46.5H1019.58V43.6H1022.48V46.5ZM1025.38 46.5H1022.48V43.6H1025.38V46.5ZM1028.28 46.5H1025.38V43.6H1028.28V46.5ZM1031.18 46.5H1028.28V43.6H1031.18V46.5ZM1022.48 43.6H1019.58V40.7H1022.48V43.6ZM1025.38 43.6H1022.48V40.7H1025.38V43.6ZM1028.28 43.6H1025.38V40.7H1028.28V43.6ZM1031.18 43.6H1028.28V40.7H1031.18V43.6ZM1022.48 40.7H1019.58V37.8H1022.48V40.7ZM1025.38 40.7H1022.48V37.8H1025.38V40.7ZM1028.28 40.7H1025.38V37.8H1028.28V40.7ZM1031.18 40.7H1028.28V37.8H1031.18V40.7ZM1022.48 37.8H1019.58V34.9H1022.48V37.8ZM1025.38 37.8H1022.48V34.9H1025.38V37.8ZM1028.28 37.8H1025.38V34.9H1028.28V37.8ZM1031.18 37.8H1028.28V34.9H1031.18V37.8ZM1022.48 34.9H1019.58V32H1022.48V34.9ZM1025.38 34.9H1022.48V32H1025.38V34.9ZM1028.28 34.9H1025.38V32H1028.28V34.9ZM1031.18 34.9H1028.28V32H1031.18V34.9ZM1022.48 32H1019.58V29.1H1022.48V32ZM1025.38 32H1022.48V29.1H1025.38V32ZM1028.28 32H1025.38V29.1H1028.28V32ZM1031.18 32H1028.28V29.1H1031.18V32ZM1022.48 29.1H1019.58V26.2H1022.48V29.1ZM1025.38 29.1H1022.48V26.2H1025.38V29.1ZM1028.28 29.1H1025.38V26.2H1028.28V29.1ZM1031.18 29.1H1028.28V26.2H1031.18V29.1ZM1022.48 26.2H1019.58V23.3H1022.48V26.2ZM1025.38 26.2H1022.48V23.3H1025.38V26.2ZM1028.28 26.2H1025.38V23.3H1028.28V26.2ZM1031.18 26.2H1028.28V23.3H1031.18V26.2ZM1022.48 23.3H1019.58V20.4H1022.48V23.3ZM1019.58 23.3H1016.68V20.4H1019.58V23.3ZM1025.38 23.3H1022.48V20.4H1025.38V23.3ZM1028.28 23.3H1025.38V20.4H1028.28V23.3ZM1031.18 23.3H1028.28V20.4H1031.18V23.3ZM1034.08 23.3H1031.18V20.4H1034.08V23.3ZM1019.58 17.5H1022.48V20.4H1019.58V17.5ZM1022.48 17.5H1025.38V20.4H1022.48V17.5ZM1025.38 17.5H1028.28V20.4H1025.38V17.5ZM1028.28 17.5H1031.18V20.4H1028.28V17.5ZM1031.18 17.5H1034.08V20.4H1031.18V17.5ZM1034.08 17.5H1036.98V20.4H1034.08V17.5ZM1036.98 17.5H1039.88V20.4H1036.98V17.5ZM1039.88 17.5H1042.78V20.4H1039.88V17.5ZM1042.78 17.5H1045.68V20.4H1042.78V17.5ZM1039.88 116.1H1042.78V119H1039.88V116.1ZM1042.78 116.1H1045.68V119H1042.78V116.1ZM1007.98 17.5H1010.88V20.4H1007.98V17.5ZM1010.88 17.5H1013.78V20.4H1010.88V17.5ZM1013.78 17.5H1016.68V20.4H1013.78V17.5ZM1016.68 17.5H1019.58V20.4H1016.68V17.5ZM1034.08 116.1H1036.98V119H1034.08V116.1ZM1036.98 116.1H1039.88V119H1036.98V116.1ZM1100.77 116.1H1103.67V119H1100.77V116.1ZM1103.67 116.1H1106.57V119H1103.67V116.1ZM1106.57 116.1H1109.47V119H1106.57V116.1ZM1109.47 116.1H1112.37V119H1109.47V116.1ZM1112.37 116.1H1115.27V119H1112.37V116.1ZM1115.27 116.1H1118.17V119H1115.27V116.1ZM1118.17 116.1H1121.07V119H1118.17V116.1ZM1121.07 116.1H1123.97V119H1121.07V116.1ZM1112.37 116.1H1109.47V113.2H1112.37V116.1ZM1115.27 116.1H1112.37V113.2H1115.27V116.1ZM1118.17 116.1H1115.27V113.2H1118.17V116.1ZM1121.07 116.1H1118.17V113.2H1121.07V116.1ZM1115.27 113.2H1112.37V110.3H1115.27V113.2ZM1118.17 113.2H1115.27V110.3H1118.17V113.2ZM1121.07 113.2H1118.17V110.3H1121.07V113.2ZM1115.27 113.2H1112.37V110.3H1115.27V113.2ZM1118.17 113.2H1115.27V110.3H1118.17V113.2ZM1121.07 113.2H1118.17V110.3H1121.07V113.2ZM1118.17 110.3H1115.27V107.4H1118.17V110.3ZM1121.07 110.3H1118.17V107.4H1121.07V110.3ZM1123.97 116.1H1121.07V113.2H1123.97V116.1ZM1123.97 113.2H1121.07V110.3H1123.97V113.2ZM1123.97 113.2H1121.07V110.3H1123.97V113.2ZM1123.97 110.3H1121.07V107.4H1123.97V110.3ZM1118.17 107.4H1115.27V104.5H1118.17V107.4ZM1121.07 107.4H1118.17V104.5H1121.07V107.4ZM1123.97 107.4H1121.07V104.5H1123.97V107.4ZM1121.07 104.5H1118.17V101.6H1121.07V104.5ZM1123.97 104.5H1121.07V101.6H1123.97V104.5ZM1121.07 101.6H1118.17V98.7H1121.07V101.6ZM1123.97 101.6H1121.07V98.7H1123.97V101.6ZM1126.87 104.5H1123.97V101.6H1126.87V104.5ZM1126.87 101.6H1123.97V98.7H1126.87V101.6ZM1121.07 98.7H1118.17V95.8H1121.07V98.7ZM1123.97 98.7H1121.07V95.8H1123.97V98.7ZM1126.87 98.7H1123.97V95.8H1126.87V98.7ZM1123.97 95.8H1121.07V92.9H1123.97V95.8ZM1126.87 95.8H1123.97V92.9H1126.87V95.8ZM1123.97 92.9H1121.07V90H1123.97V92.9ZM1126.87 92.9H1123.97V90H1126.87V92.9ZM1129.77 95.8H1126.87V92.9H1129.77V95.8ZM1129.77 92.9H1126.87V90H1129.77V92.9ZM1126.87 90H1123.97V87.1H1126.87V90ZM1129.77 90H1126.87V87.1H1129.77V90ZM1126.87 87.1H1123.97V84.2H1126.87V87.1ZM1129.77 87.1H1126.87V84.2H1129.77V87.1ZM1126.87 84.2H1123.97V81.3H1126.87V84.2ZM1129.77 84.2H1126.87V81.3H1129.77V84.2ZM1132.67 87.1H1129.77V84.2H1132.67V87.1ZM1132.67 84.2H1129.77V81.3H1132.67V84.2ZM1129.77 81.3H1126.87V78.4H1129.77V81.3ZM1132.67 81.3H1129.77V78.4H1132.67V81.3ZM1135.57 81.3H1132.67V78.4H1135.57V81.3ZM1129.77 78.4H1126.87V75.5H1129.77V78.4ZM1132.67 78.4H1129.77V75.5H1132.67V78.4ZM1129.77 75.5H1126.87V72.6H1129.77V75.5ZM1132.67 75.5H1129.77V72.6H1132.67V75.5ZM1135.57 78.4H1132.67V75.5H1135.57V78.4ZM1138.47 81.3H1135.57V78.4H1138.47V81.3ZM1141.37 81.3H1138.47V78.4H1141.37V81.3ZM1135.57 75.5H1132.67V72.6H1135.57V75.5ZM1138.47 78.4H1135.57V75.5H1138.47V78.4ZM1141.37 78.4H1138.47V75.5H1141.37V78.4ZM1144.27 81.3H1141.37V78.4H1144.27V81.3ZM1147.17 81.3H1144.27V78.4H1147.17V81.3ZM1144.27 78.4H1141.37V75.5H1144.27V78.4ZM1147.17 78.4H1144.27V75.5H1147.17V78.4ZM1150.07 81.3H1147.17V78.4H1150.07V81.3ZM1152.97 81.3H1150.07V78.4H1152.97V81.3ZM1155.87 81.3H1152.97V78.4H1155.87V81.3ZM1150.07 78.4H1147.17V75.5H1150.07V78.4ZM1152.97 78.4H1150.07V75.5H1152.97V78.4ZM1155.87 78.4H1152.97V75.5H1155.87V78.4ZM1158.77 81.3H1155.87V78.4H1158.77V81.3ZM1161.67 81.3H1158.77V78.4H1161.67V81.3ZM1164.57 78.4H1161.67V75.5H1164.57V78.4ZM1158.77 78.4H1155.87V75.5H1158.77V78.4ZM1161.67 78.4H1158.77V75.5H1161.67V78.4ZM1164.57 75.5H1161.67V72.6H1164.57V75.5ZM1167.47 78.4H1164.57V75.5H1167.47V78.4ZM1170.37 78.4H1167.47V75.5H1170.37V78.4ZM1173.27 78.4H1170.37V75.5H1173.27V78.4ZM1164.57 81.3H1161.67V78.4H1164.57V81.3ZM1167.47 81.3H1164.57V78.4H1167.47V81.3ZM1170.37 81.3H1167.47V78.4H1170.37V81.3ZM1173.27 81.3H1170.37V78.4H1173.27V81.3ZM1176.17 81.3H1173.27V78.4H1176.17V81.3ZM1167.47 84.2H1164.57V81.3H1167.47V84.2ZM1170.37 84.2H1167.47V81.3H1170.37V84.2ZM1173.27 84.2H1170.37V81.3H1173.27V84.2ZM1176.17 84.2H1173.27V81.3H1176.17V84.2ZM1167.47 87.1H1164.57V84.2H1167.47V87.1ZM1170.37 87.1H1167.47V84.2H1170.37V87.1ZM1173.27 87.1H1170.37V84.2H1173.27V87.1ZM1176.17 87.1H1173.27V84.2H1176.17V87.1ZM1179.07 87.1H1176.17V84.2H1179.07V87.1ZM1170.37 90H1167.47V87.1H1170.37V90ZM1173.27 90H1170.37V87.1H1173.27V90ZM1176.17 90H1173.27V87.1H1176.17V90ZM1179.07 90H1176.17V87.1H1179.07V90ZM1170.37 92.9H1167.47V90H1170.37V92.9ZM1173.27 92.9H1170.37V90H1173.27V92.9ZM1176.17 92.9H1173.27V90H1176.17V92.9ZM1179.07 92.9H1176.17V90H1179.07V92.9ZM1173.27 95.8H1170.37V92.9H1173.27V95.8ZM1176.17 95.8H1173.27V92.9H1176.17V95.8ZM1179.07 95.8H1176.17V92.9H1179.07V95.8ZM1181.97 95.8H1179.07V92.9H1181.97V95.8ZM1173.27 98.7H1170.37V95.8H1173.27V98.7ZM1176.17 98.7H1173.27V95.8H1176.17V98.7ZM1179.07 98.7H1176.17V95.8H1179.07V98.7ZM1181.97 98.7H1179.07V95.8H1181.97V98.7ZM1173.27 101.6H1170.37V98.7H1173.27V101.6ZM1176.17 101.6H1173.27V98.7H1176.17V101.6ZM1179.07 101.6H1176.17V98.7H1179.07V101.6ZM1181.97 101.6H1179.07V98.7H1181.97V101.6ZM1184.87 101.6H1181.97V98.7H1184.87V101.6ZM1176.17 104.5H1173.27V101.6H1176.17V104.5ZM1179.07 104.5H1176.17V101.6H1179.07V104.5ZM1181.97 104.5H1179.07V101.6H1181.97V104.5ZM1184.87 104.5H1181.97V101.6H1184.87V104.5ZM1176.17 107.4H1173.27V104.5H1176.17V107.4ZM1179.07 107.4H1176.17V104.5H1179.07V107.4ZM1181.97 107.4H1179.07V104.5H1181.97V107.4ZM1184.87 107.4H1181.97V104.5H1184.87V107.4ZM1176.17 110.3H1173.27V107.4H1176.17V110.3ZM1179.07 110.3H1176.17V107.4H1179.07V110.3ZM1181.97 110.3H1179.07V107.4H1181.97V110.3ZM1184.87 110.3H1181.97V107.4H1184.87V110.3ZM1187.77 110.3H1184.87V107.4H1187.77V110.3ZM1179.07 113.2H1176.17V110.3H1179.07V113.2ZM1181.97 113.2H1179.07V110.3H1181.97V113.2ZM1184.87 113.2H1181.97V110.3H1184.87V113.2ZM1187.77 113.2H1184.87V110.3H1187.77V113.2ZM1190.67 113.2H1187.77V110.3H1190.67V113.2ZM1179.07 116.1H1176.17V113.2H1179.07V116.1ZM1181.97 116.1H1179.07V113.2H1181.97V116.1ZM1184.87 116.1H1181.97V113.2H1184.87V116.1ZM1187.77 116.1H1184.87V113.2H1187.77V116.1ZM1190.67 116.1H1187.77V113.2H1190.67V116.1ZM1193.57 116.1H1190.67V113.2H1193.57V116.1ZM1176.17 116.1H1179.07V119H1176.17V116.1ZM1173.27 116.1H1176.17V119H1173.27V116.1ZM1179.07 116.1H1181.97V119H1179.07V116.1ZM1181.97 116.1H1184.87V119H1181.97V116.1ZM1184.87 116.1H1187.77V119H1184.87V116.1ZM1187.77 116.1H1190.67V119H1187.77V116.1ZM1190.67 116.1H1193.57V119H1190.67V116.1ZM1193.57 116.1H1196.47V119H1193.57V116.1ZM1196.47 116.1H1199.37V119H1196.47V116.1ZM1199.37 116.1H1202.27V119H1199.37V116.1ZM1167.47 75.5H1164.57V72.6H1167.47V75.5ZM1170.37 75.5H1167.47V72.6H1170.37V75.5ZM1173.27 75.5H1170.37V72.6H1173.27V75.5ZM1164.57 72.6H1161.67V69.7H1164.57V72.6ZM1167.47 72.6H1164.57V69.7H1167.47V72.6ZM1170.37 72.6H1167.47V69.7H1170.37V72.6ZM1161.67 69.7H1158.77V66.8H1161.67V69.7ZM1164.57 69.7H1161.67V66.8H1164.57V69.7ZM1167.47 69.7H1164.57V66.8H1167.47V69.7ZM1170.37 69.7H1167.47V66.8H1170.37V69.7ZM1161.67 66.8H1158.77V63.9H1161.67V66.8ZM1164.57 66.8H1161.67V63.9H1164.57V66.8ZM1167.47 66.8H1164.57V63.9H1167.47V66.8ZM1161.67 63.9H1158.77V61H1161.67V63.9ZM1164.57 63.9H1161.67V61H1164.57V63.9ZM1167.47 63.9H1164.57V61H1167.47V63.9ZM1170.37 66.8H1167.47V63.9H1170.37V66.8ZM1173.27 72.6H1170.37V69.7H1173.27V72.6ZM1161.67 61H1158.77V58.1H1161.67V61ZM1164.57 61H1161.67V58.1H1164.57V61ZM1167.47 61H1164.57V58.1H1167.47V61ZM1158.77 61H1155.87V58.1H1158.77V61ZM1161.67 58.1H1158.77V55.2H1161.67V58.1ZM1164.57 58.1H1161.67V55.2H1164.57V58.1ZM1167.47 58.1H1164.57V55.2H1167.47V58.1ZM1158.77 58.1H1155.87V55.2H1158.77V58.1ZM1158.77 55.2H1155.87V52.3H1158.77V55.2ZM1161.67 55.2H1158.77V52.3H1161.67V55.2ZM1164.57 55.2H1161.67V52.3H1164.57V55.2ZM1155.87 55.2H1152.97V52.3H1155.87V55.2ZM1158.77 52.3H1155.87V49.4H1158.77V52.3ZM1161.67 52.3H1158.77V49.4H1161.67V52.3ZM1164.57 52.3H1161.67V49.4H1164.57V52.3ZM1155.87 52.3H1152.97V49.4H1155.87V52.3ZM1155.87 49.4H1152.97V46.5H1155.87V49.4ZM1158.77 49.4H1155.87V46.5H1158.77V49.4ZM1161.67 49.4H1158.77V46.5H1161.67V49.4ZM1155.87 46.5H1152.97V43.6H1155.87V46.5ZM1161.67 46.5H1158.77V43.6H1161.67V46.5ZM1152.97 46.5H1150.07V43.6H1152.97V46.5ZM1152.97 43.6H1150.07V40.7H1152.97V43.6ZM1155.87 43.6H1152.97V40.7H1155.87V43.6ZM1158.77 43.6H1155.87V40.7H1158.77V43.6ZM1158.77 46.5H1155.87V43.6H1158.77V46.5ZM1161.67 43.6H1158.77V40.7H1161.67V43.6ZM1152.97 40.7H1150.07V37.8H1152.97V40.7ZM1155.87 40.7H1152.97V37.8H1155.87V40.7ZM1150.07 37.8H1147.17V34.9H1150.07V37.8ZM1152.97 37.8H1150.07V34.9H1152.97V37.8ZM1155.87 37.8H1152.97V34.9H1155.87V37.8ZM1158.77 40.7H1155.87V37.8H1158.77V40.7ZM1150.07 34.9H1147.17V32H1150.07V34.9ZM1152.97 34.9H1150.07V32H1152.97V34.9ZM1155.87 34.9H1152.97V32H1155.87V34.9ZM1158.77 37.8H1155.87V34.9H1158.77V37.8ZM1150.07 32H1147.17V29.1H1150.07V32ZM1152.97 32H1150.07V29.1H1152.97V32ZM1155.87 32H1152.97V29.1H1155.87V32ZM1158.77 34.9H1155.87V32H1158.77V34.9ZM1150.07 29.1H1147.17V26.2H1150.07V29.1ZM1152.97 29.1H1150.07V26.2H1152.97V29.1ZM1155.87 29.1H1152.97V26.2H1155.87V29.1ZM1152.97 26.2H1150.07V23.3H1152.97V26.2ZM1155.87 26.2H1152.97V23.3H1155.87V26.2ZM1150.07 26.2H1147.17V23.3H1150.07V26.2ZM1150.07 23.3H1147.17V20.4H1150.07V23.3ZM1152.97 23.3H1150.07V20.4H1152.97V23.3ZM1150.07 17.5H1152.97V20.4H1150.07V17.5ZM1135.57 72.6H1132.67V69.7H1135.57V72.6ZM1132.67 72.6H1129.77V69.7H1132.67V72.6ZM1135.57 69.7H1132.67V66.8H1135.57V69.7ZM1132.67 69.7H1129.77V66.8H1132.67V69.7ZM1135.57 66.8H1132.67V63.9H1135.57V66.8ZM1138.47 69.7H1135.57V66.8H1138.47V69.7ZM1138.47 66.8H1135.57V63.9H1138.47V66.8ZM1132.67 66.8H1129.77V63.9H1132.67V66.8ZM1138.47 63.9H1135.57V61H1138.47V63.9ZM1135.57 63.9H1132.67V61H1135.57V63.9ZM1138.47 61H1135.57V58.1H1138.47V61ZM1135.57 61H1132.67V58.1H1135.57V61ZM1138.47 58.1H1135.57V55.2H1138.47V58.1ZM1141.37 61H1138.47V58.1H1141.37V61ZM1141.37 58.1H1138.47V55.2H1141.37V58.1ZM1141.37 55.2H1138.47V52.3H1141.37V55.2ZM1138.47 55.2H1135.57V52.3H1138.47V55.2ZM1141.37 52.3H1138.47V49.4H1141.37V52.3ZM1144.27 52.3H1141.37V49.4H1144.27V52.3ZM1138.47 52.3H1135.57V49.4H1138.47V52.3ZM1141.37 49.4H1138.47V46.5H1141.37V49.4ZM1144.27 49.4H1141.37V46.5H1144.27V49.4ZM1144.27 46.5H1141.37V43.6H1144.27V46.5ZM1141.37 46.5H1138.47V43.6H1141.37V46.5ZM1144.27 43.6H1141.37V40.7H1144.27V43.6ZM1147.17 43.6H1144.27V40.7H1147.17V43.6ZM1141.37 43.6H1138.47V40.7H1141.37V43.6ZM1144.27 40.7H1141.37V37.8H1144.27V40.7ZM1147.17 40.7H1144.27V37.8H1147.17V40.7ZM1147.17 37.8H1144.27V34.9H1147.17V37.8ZM1144.27 37.8H1141.37V34.9H1144.27V37.8ZM1144.27 34.9H1141.37V32H1144.27V34.9ZM1147.17 34.9H1144.27V32H1147.17V34.9ZM1147.17 32H1144.27V29.1H1147.17V32ZM1147.17 29.1H1144.27V26.2H1147.17V29.1ZM1147.17 17.5H1150.07V20.4H1147.17V17.5ZM1123.97 116.1H1126.87V119H1123.97V116.1ZM1126.87 116.1H1129.77V119H1126.87V116.1ZM1150.07 14.6H1152.97V17.5H1150.07V14.6ZM1147.17 14.6H1150.07V17.5H1147.17V14.6ZM1202.27 116.1H1205.17V119H1202.27V116.1ZM13.3892 247.275C14.5492 245.632 15.5642 243.65 16.4342 241.33C17.3042 239.01 17.7392 236.642 17.7392 234.225V160.275C17.7392 157.858 17.3042 155.49 16.4342 153.17C15.5642 150.85 14.5492 148.868 13.3892 147.225V146.5H32.9642V147.225C31.8042 148.868 30.7892 150.85 29.9192 153.17C29.0492 155.49 28.6142 157.858 28.6142 160.275V194.35H82.9892V160.275C82.9892 157.858 82.5542 155.49 81.6842 153.17C80.8142 150.85 79.7992 148.868 78.6392 147.225V146.5H98.2142V147.225C97.0542 148.868 96.0392 150.85 95.1692 153.17C94.2992 155.49 93.8642 157.858 93.8642 160.275V234.225C93.8642 236.642 94.2992 239.01 95.1692 241.33C96.0392 243.65 97.0542 245.632 98.2142 247.275V248H78.6392V247.275C79.7992 245.632 80.8142 243.65 81.6842 241.33C82.5542 239.01 82.9892 236.642 82.9892 234.225V197.25H28.6142V234.225C28.6142 236.642 29.0492 239.01 29.9192 241.33C30.7892 243.65 31.8042 245.632 32.9642 247.275V248H13.3892V247.275ZM159.788 249.45C150.798 249.45 142.823 247.275 135.863 242.925C129 238.575 123.635 232.437 119.768 224.51C115.998 216.583 114.113 207.497 114.113 197.25C114.113 187.003 115.998 177.917 119.768 169.99C123.635 162.063 129 155.925 135.863 151.575C142.823 147.225 150.798 145.05 159.788 145.05C168.778 145.05 176.705 147.225 183.568 151.575C190.528 155.925 195.893 162.063 199.663 169.99C203.53 177.917 205.463 187.003 205.463 197.25C205.463 207.497 203.53 216.583 199.663 224.51C195.893 232.437 190.528 238.575 183.568 242.925C176.705 247.275 168.778 249.45 159.788 249.45ZM159.788 246.55C166.362 246.55 172.162 244.472 177.188 240.315C182.215 236.158 186.13 230.358 188.933 222.915C191.737 215.375 193.138 206.82 193.138 197.25C193.138 187.68 191.737 179.173 188.933 171.73C186.13 164.19 182.215 158.342 177.188 154.185C172.162 150.028 166.362 147.95 159.788 147.95C153.215 147.95 147.415 150.028 142.388 154.185C137.362 158.342 133.447 164.19 130.643 171.73C127.84 179.173 126.438 187.68 126.438 197.25C126.438 206.82 127.84 215.375 130.643 222.915C133.447 230.358 137.362 236.158 142.388 240.315C147.415 244.472 153.215 246.55 159.788 246.55ZM221.481 247.275C222.641 245.632 223.656 243.65 224.526 241.33C225.396 239.01 225.831 236.642 225.831 234.225V160.275C225.831 157.858 225.396 155.49 224.526 153.17C223.656 150.85 222.641 148.868 221.481 147.225V146.5H254.831C264.788 146.5 273.053 148.337 279.626 152.01C286.296 155.683 289.631 161.58 289.631 169.7C289.631 176.177 287.408 181.348 282.961 185.215C278.515 188.985 273.15 191.498 266.866 192.755V193.045C271.41 193.625 275.711 195.075 279.771 197.395C283.928 199.618 287.311 202.615 289.921 206.385C292.628 210.155 293.981 214.602 293.981 219.725C293.981 229.488 290.163 236.642 282.526 241.185C274.986 245.728 265.755 248 254.831 248H221.481V247.275ZM253.381 191.45C260.921 191.45 266.915 189.517 271.361 185.65C275.808 181.783 278.031 176.708 278.031 170.425C278.031 164.335 275.663 159.308 270.926 155.345C266.19 151.382 259.616 149.4 251.206 149.4C246.566 149.4 241.733 150.125 236.706 151.575V191.45H253.381ZM251.931 245.1C257.828 245.1 263 244.037 267.446 241.91C271.99 239.687 275.47 236.642 277.886 232.775C280.4 228.908 281.656 224.558 281.656 219.725C281.656 214.698 280.448 210.3 278.031 206.53C275.711 202.663 272.376 199.667 268.026 197.54C263.773 195.413 258.891 194.35 253.381 194.35H236.706V242.2C241.25 244.133 246.325 245.1 251.931 245.1ZM309.88 247.275C311.04 245.632 312.055 243.65 312.925 241.33C313.795 239.01 314.23 236.642 314.23 234.225V160.275C314.23 157.858 313.795 155.49 312.925 153.17C312.055 150.85 311.04 148.868 309.88 147.225V146.5H329.455V147.225C328.295 148.868 327.28 150.85 326.41 153.17C325.54 155.49 325.105 157.858 325.105 160.275V190C328.682 189.227 331.727 188.695 334.24 188.405C336.85 188.018 339.847 187.825 343.23 187.825C353.67 187.825 362.322 190.338 369.185 195.365C376.049 200.392 379.48 208.028 379.48 218.275C379.48 228.908 375.807 236.545 368.46 241.185C361.21 245.728 352.075 248 341.055 248H309.88V247.275ZM389.63 247.275C390.79 245.632 391.805 243.65 392.675 241.33C393.545 239.01 393.98 236.642 393.98 234.225V160.275C393.98 157.858 393.545 155.49 392.675 153.17C391.805 150.85 390.79 148.868 389.63 147.225V146.5H409.205V147.225C408.045 148.868 407.03 150.85 406.16 153.17C405.29 155.49 404.855 157.858 404.855 160.275V234.225C404.855 236.642 405.29 239.01 406.16 241.33C407.03 243.65 408.045 245.632 409.205 247.275V248H389.63V247.275ZM339.605 245.1C345.599 245.1 350.674 243.892 354.83 241.475C358.987 238.962 362.08 235.675 364.11 231.615C366.14 227.458 367.155 223.012 367.155 218.275C367.155 210.348 364.932 203.775 360.485 198.555C356.039 193.335 349.804 190.725 341.78 190.725C336.464 190.725 330.905 191.45 325.105 192.9V242.925C330.229 244.375 335.062 245.1 339.605 245.1ZM430.989 247.275C432.149 245.632 433.164 243.65 434.034 241.33C434.904 239.01 435.339 236.642 435.339 234.225V160.275C435.339 157.858 434.904 155.49 434.034 153.17C433.164 150.85 432.149 148.868 430.989 147.225V146.5H450.564V147.225C449.404 148.868 448.389 150.85 447.519 153.17C446.649 155.49 446.214 157.858 446.214 160.275V228.86L501.314 160.275C501.314 157.858 500.879 155.49 500.009 153.17C499.139 150.85 498.124 148.868 496.964 147.225V146.5H516.539V147.225C515.379 148.868 514.364 150.85 513.494 153.17C512.624 155.49 512.189 157.858 512.189 160.275V234.225C512.189 236.642 512.624 239.01 513.494 241.33C514.364 243.65 515.379 245.632 516.539 247.275V248H496.964V247.275C498.124 245.632 499.139 243.65 500.009 241.33C500.879 239.01 501.314 236.642 501.314 234.225V165.64L446.214 234.225C446.214 236.642 446.649 239.01 447.519 241.33C448.389 243.65 449.404 245.632 450.564 247.275V248H430.989V247.275ZM473.764 137.075C466.611 137.075 461.198 135.818 457.524 133.305C453.851 130.695 452.014 127.602 452.014 124.025C452.014 121.898 452.594 120.255 453.754 119.095C454.914 117.935 456.558 117.355 458.684 117.355C461.101 117.355 463.179 118.08 464.919 119.53C463.663 121.173 463.034 123.252 463.034 125.765C463.034 128.762 463.856 130.985 465.499 132.435C467.143 133.885 469.898 134.61 473.764 134.61C477.631 134.61 480.386 133.885 482.029 132.435C483.673 130.985 484.494 128.762 484.494 125.765C484.494 123.252 483.866 121.173 482.609 119.53C484.349 118.08 486.428 117.355 488.844 117.355C490.971 117.355 492.614 117.935 493.774 119.095C494.934 120.255 495.514 121.898 495.514 124.025C495.514 127.602 493.678 130.695 490.004 133.305C486.331 135.818 480.918 137.075 473.764 137.075ZM721.51 234.225V235.675C721.51 238.285 721.945 240.798 722.815 243.215C723.685 245.632 724.7 247.71 725.86 249.45V250.175H706.285V249.45C707.542 247.807 708.557 245.777 709.33 243.36C710.2 240.943 710.635 238.382 710.635 235.675V234.225H708.46C699.47 234.225 691.592 232.727 684.825 229.73C678.059 226.637 672.79 222.238 669.02 216.535C665.347 210.832 663.51 204.162 663.51 196.525C663.51 188.888 665.347 182.218 669.02 176.515C672.79 170.812 678.059 166.462 684.825 163.465C691.592 160.372 699.47 158.825 708.46 158.825H710.635C710.635 156.118 710.2 153.557 709.33 151.14C708.557 148.723 707.542 146.693 706.285 145.05V144.325H725.86V145.05C724.604 146.693 723.54 148.723 722.67 151.14C721.897 153.557 721.51 156.118 721.51 158.825H723.685C732.675 158.825 740.554 160.372 747.32 163.465C754.087 166.462 759.307 170.812 762.98 176.515C766.75 182.218 768.635 188.888 768.635 196.525C768.635 204.162 766.75 210.832 762.98 216.535C759.307 222.238 754.087 226.637 747.32 229.73C740.554 232.727 732.675 234.225 723.685 234.225H721.51ZM675.835 196.525C675.835 207.352 678.832 215.858 684.825 222.045C690.819 228.232 698.939 231.325 709.185 231.325H710.635V161.725H709.185C698.939 161.725 690.819 164.818 684.825 171.005C678.832 177.192 675.835 185.698 675.835 196.525ZM721.51 161.725V231.325H722.96C733.207 231.325 741.327 228.232 747.32 222.045C753.314 215.858 756.31 207.352 756.31 196.525C756.31 185.698 753.314 177.192 747.32 171.005C741.327 164.818 733.207 161.725 722.96 161.725H721.51ZM822.274 249.45C813.284 249.45 805.309 247.275 798.349 242.925C791.486 238.575 786.121 232.437 782.254 224.51C778.484 216.583 776.599 207.497 776.599 197.25C776.599 187.003 778.484 177.917 782.254 169.99C786.121 162.063 791.486 155.925 798.349 151.575C805.309 147.225 813.284 145.05 822.274 145.05C831.264 145.05 839.191 147.225 846.054 151.575C853.014 155.925 858.379 162.063 862.149 169.99C866.016 177.917 867.949 187.003 867.949 197.25C867.949 207.497 866.016 216.583 862.149 224.51C858.379 232.437 853.014 238.575 846.054 242.925C839.191 247.275 831.264 249.45 822.274 249.45ZM822.274 246.55C828.847 246.55 834.647 244.472 839.674 240.315C844.701 236.158 848.616 230.358 851.419 222.915C854.222 215.375 855.624 206.82 855.624 197.25C855.624 187.68 854.222 179.173 851.419 171.73C848.616 164.19 844.701 158.342 839.674 154.185C834.647 150.028 828.847 147.95 822.274 147.95C815.701 147.95 809.901 150.028 804.874 154.185C799.847 158.342 795.932 164.19 793.129 171.73C790.326 179.173 788.924 187.68 788.924 197.25C788.924 206.82 790.326 215.375 793.129 222.915C795.932 230.358 799.847 236.158 804.874 240.315C809.901 244.472 815.701 246.55 822.274 246.55ZM883.967 247.275C885.127 245.632 886.142 243.65 887.012 241.33C887.882 239.01 888.317 236.642 888.317 234.225V160.275C888.317 157.858 887.882 155.49 887.012 153.17C886.142 150.85 885.127 148.868 883.967 147.225V146.5H915.867C926.694 146.5 935.684 148.82 942.837 153.46C949.99 158.003 953.567 165.592 953.567 176.225C953.567 183.088 951.924 188.84 948.637 193.48C945.447 198.023 941.194 201.358 935.877 203.485C930.657 205.612 924.954 206.675 918.767 206.675C915.77 206.675 913.112 206.482 910.792 206.095C908.472 205.612 906.055 204.838 903.542 203.775V202.325C907.409 203.292 911.517 203.775 915.867 203.775C924.18 203.775 930.609 201.213 935.152 196.09C939.695 190.87 941.967 184.248 941.967 176.225C941.967 171.488 940.952 167.09 938.922 163.03C936.989 158.873 934.04 155.587 930.077 153.17C926.21 150.657 921.474 149.4 915.867 149.4C912.387 149.4 909.39 149.593 906.877 149.98C904.46 150.27 901.899 150.802 899.192 151.575V234.225C899.192 236.642 899.627 239.01 900.497 241.33C901.367 243.65 902.382 245.632 903.542 247.275V248H883.967V247.275ZM965.96 247.275C967.99 244.858 969.44 242.683 970.31 240.75C971.277 238.817 971.76 236.642 971.76 234.225V160.275C971.76 157.858 971.277 155.683 970.31 153.75C969.44 151.817 967.99 149.642 965.96 147.225V146.5H982.49L1020.48 233.21L1057.74 146.5H1072.53V147.225C1071.37 148.868 1070.36 150.85 1069.49 153.17C1068.62 155.49 1068.18 157.858 1068.18 160.275V234.225C1068.18 236.642 1068.62 239.01 1069.49 241.33C1070.36 243.65 1071.37 245.632 1072.53 247.275V248H1052.96V247.275C1054.12 245.632 1055.13 243.65 1056 241.33C1056.87 239.01 1057.31 236.642 1057.31 234.225V155.925L1017.43 248H1015.26L975.385 157.375V234.225C975.385 236.642 975.82 238.817 976.69 240.75C977.657 242.683 979.155 244.858 981.185 247.275V248H965.96V247.275ZM1082 247.275C1084.42 245.922 1086.4 244.182 1087.94 242.055C1089.49 239.928 1090.89 237.318 1092.15 234.225L1126.95 145.775H1129.12L1164.07 234.515C1165.23 237.512 1166.34 239.928 1167.4 241.765C1168.56 243.602 1170.06 245.438 1171.9 247.275V248H1150.15V247.275C1151.02 246.405 1151.74 245.245 1152.32 243.795C1153 242.345 1153.34 240.798 1153.34 239.155C1153.34 237.512 1153 235.868 1152.32 234.225L1143.77 212.475H1104.33L1095.77 234.225C1094.9 236.352 1094.47 238.285 1094.47 240.025C1094.47 242.925 1095.87 245.342 1098.67 247.275V248H1082V247.275ZM1124.05 161.87L1105.34 209.575H1142.61L1124.05 161.87ZM1197.25 247.275C1198.41 245.632 1199.43 243.65 1200.3 241.33C1201.17 239.01 1201.6 236.642 1201.6 234.225V149.4H1190.73C1185.8 149.4 1181.69 150.222 1178.4 151.865C1175.21 153.412 1172.6 155.587 1170.57 158.39C1168.54 161.097 1166.56 164.625 1164.63 168.975H1163.18L1166.08 146.5H1248L1250.9 168.975H1249.45C1247.52 164.625 1245.54 161.097 1243.51 158.39C1241.48 155.587 1238.82 153.412 1235.53 151.865C1232.34 150.222 1228.28 149.4 1223.35 149.4H1212.48V234.225C1212.48 236.642 1212.91 239.01 1213.78 241.33C1214.65 243.65 1215.67 245.632 1216.83 247.275V248H1197.25V247.275Z" fill="black"/>
<path d="M636 200C636 226.51 614.51 248 588 248C561.49 248 540 226.51 540 200C540 173.49 561.49 152 588 152C614.51 152 636 173.49 636 200Z" fill="black"/>
<path d="M595.34 174.359L591.434 179.549L604.313 200.136H574.291V169.684H569.053V208.887H604.313L591.612 229.396L595.695 235.369L614.526 204.732L595.34 174.359Z" fill="white"/>
</svg>
